<svg width="80" height="65" viewBox="0 0 80 65" fill="none" xmlns="http://www.w3.org/2000/svg">
<path d="M0 65.0073H30.7285C33.7307 55.2794 35.2318 45.1978 35.2318 34.7624C35.2318 24.1502 32.4945 15.7488 27.0199 9.55833C21.3687 3.19099 13.0684 0.00732422 2.11921 0.00732422V14.8645C10.9492 14.8645 15.3642 20.259 15.3642 31.0481V36.0889H0V65.0073ZM44.7682 65.0073H75.4967C78.4989 55.2794 80 45.1978 80 34.7624C80 24.1502 77.2627 15.7488 71.7881 9.55833C66.1369 3.19099 57.8366 0.00732422 46.8874 0.00732422V14.8645C55.7174 14.8645 60.1325 20.259 60.1325 31.0481V36.0889H44.7682V65.0073Z" fill="#CBD5E1" fill-opacity="0.3"/>
</svg>
