<svg width="189" height="61" viewBox="0 0 189 61" fill="none" xmlns="http://www.w3.org/2000/svg">
<rect width="189" height="61" rx="10" fill="#2B2B2B"/>
<path d="M73.4255 44.502L71.6981 40.0633H64.6538L62.9713 44.502H60.6157L66.9421 28.6079H69.4771L75.8035 44.502H73.4255ZM68.1535 30.8945L65.439 38.0233H70.9129L68.1535 30.8945ZM79.8053 48.7613H77.7189V33.7191H79.7604V35.4004C80.0745 34.8325 80.5456 34.3692 81.1738 34.0105C81.8019 33.6518 82.5348 33.4725 83.3723 33.4725C84.9277 33.4725 86.1391 34.0031 87.0066 35.0642C87.889 36.1253 88.3302 37.4703 88.3302 39.0993C88.3302 40.7433 87.874 42.1033 86.9617 43.1793C86.0644 44.2554 84.8454 44.7934 83.305 44.7934C82.5123 44.7934 81.8094 44.629 81.1962 44.3002C80.583 43.9714 80.1194 43.553 79.8053 43.0448V48.7613ZM86.1765 39.0993C86.1765 38.0083 85.8849 37.1116 85.3016 36.4092C84.7333 35.6918 83.963 35.3332 82.9909 35.3332C82.0337 35.3332 81.256 35.6918 80.6578 36.4092C80.0745 37.1116 79.7829 38.0083 79.7829 39.0993C79.7829 40.2202 80.0745 41.1393 80.6578 41.8567C81.256 42.5591 82.0337 42.9103 82.9909 42.9103C83.9481 42.9103 84.7183 42.5591 85.3016 41.8567C85.8849 41.1393 86.1765 40.2202 86.1765 39.0993ZM93.1036 48.7613H91.0172V33.7191H93.0587V35.4004C93.3728 34.8325 93.8439 34.3692 94.4721 34.0105C95.1002 33.6518 95.8331 33.4725 96.6706 33.4725C98.226 33.4725 99.4374 34.0031 100.305 35.0642C101.187 36.1253 101.629 37.4703 101.629 39.0993C101.629 40.7433 101.172 42.1033 100.26 43.1793C99.3627 44.2554 98.1438 44.7934 96.6033 44.7934C95.8106 44.7934 95.1077 44.629 94.4945 44.3002C93.8813 43.9714 93.4177 43.553 93.1036 43.0448V48.7613ZM99.4748 39.0993C99.4748 38.0083 99.1832 37.1116 98.5999 36.4092C98.0316 35.6918 97.2614 35.3332 96.2892 35.3332C95.332 35.3332 94.5543 35.6918 93.9561 36.4092C93.3728 37.1116 93.0812 38.0083 93.0812 39.0993C93.0812 40.2202 93.3728 41.1393 93.9561 41.8567C94.5543 42.5591 95.332 42.9103 96.2892 42.9103C97.2464 42.9103 98.0166 42.5591 98.5999 41.8567C99.1832 41.1393 99.4748 40.2202 99.4748 39.0993ZM120.289 32.2171L118.315 32.9121C118.21 32.2246 117.874 31.6044 117.305 31.0514C116.737 30.4835 115.952 30.1995 114.95 30.1995C114.067 30.1995 113.334 30.4536 112.751 30.9617C112.167 31.4699 111.876 32.0976 111.876 32.8448C111.876 33.4277 112.048 33.9209 112.392 34.3244C112.751 34.7279 113.26 35.0044 113.918 35.1538L116.296 35.6694C117.612 35.9534 118.629 36.4914 119.347 37.2835C120.065 38.0606 120.424 39.0097 120.424 40.1305C120.424 41.4158 119.915 42.5218 118.898 43.4484C117.881 44.375 116.557 44.8383 114.927 44.8383C113.147 44.8383 111.749 44.375 110.732 43.4484C109.73 42.5068 109.146 41.3934 108.982 40.1081L111.091 39.4356C111.18 40.3921 111.554 41.1991 112.212 41.8567C112.871 42.5143 113.768 42.8431 114.905 42.8431C115.952 42.8431 116.759 42.604 117.328 42.1257C117.896 41.6475 118.18 41.0422 118.18 40.3099C118.18 39.7121 117.978 39.1965 117.574 38.7631C117.171 38.3147 116.58 38.0083 115.802 37.8439L113.536 37.3508C112.354 37.0967 111.412 36.596 110.709 35.8488C110.006 35.1015 109.655 34.1525 109.655 33.0017C109.655 31.7463 110.163 30.6479 111.18 29.7063C112.212 28.7498 113.454 28.2716 114.905 28.2716C116.535 28.2716 117.784 28.6677 118.651 29.4597C119.519 30.2518 120.065 31.171 120.289 32.2171ZM125.83 30.3116V33.7191H128.163V35.6246H125.83V41.229C125.83 41.7371 125.942 42.1108 126.167 42.3499C126.406 42.589 126.795 42.7086 127.333 42.7086C127.647 42.7086 127.924 42.6787 128.163 42.6189V44.4123C127.804 44.5468 127.326 44.6141 126.727 44.6141C125.8 44.6141 125.067 44.3451 124.529 43.807C123.991 43.269 123.721 42.5143 123.721 41.5429V35.6246H121.657V33.7191H122.241C122.794 33.7191 123.205 33.5696 123.475 33.2707C123.759 32.9569 123.901 32.5534 123.901 32.0602V30.3116H125.83ZM133.089 41.9464C133.747 42.6189 134.547 42.9552 135.49 42.9552C136.432 42.9552 137.224 42.6189 137.868 41.9464C138.526 41.2589 138.855 40.3099 138.855 39.0993C138.855 37.9037 138.526 36.9697 137.868 36.2971C137.224 35.6097 136.432 35.2659 135.49 35.2659C134.547 35.2659 133.747 35.6097 133.089 36.2971C132.446 36.9697 132.124 37.9037 132.124 39.0993C132.124 40.3099 132.446 41.2589 133.089 41.9464ZM131.519 35.0193C132.566 33.9283 133.889 33.3828 135.49 33.3828C137.09 33.3828 138.406 33.9283 139.438 35.0193C140.485 36.0954 141.008 37.4554 141.008 39.0993C141.008 40.7582 140.492 42.1332 139.46 43.2242C138.428 44.3002 137.105 44.8383 135.49 44.8383C133.874 44.8383 132.551 44.3002 131.519 43.2242C130.487 42.1332 129.971 40.7582 129.971 39.0993C129.971 37.4554 130.487 36.0954 131.519 35.0193ZM149.697 33.607V35.8488C149.383 35.8039 149.076 35.7815 148.777 35.7815C146.803 35.7815 145.816 36.8875 145.816 39.0993V44.502H143.707V33.7191H145.771V35.6022C146.429 34.2272 147.506 33.5398 149.001 33.5398C149.24 33.5398 149.472 33.5622 149.697 33.607ZM153.203 38.0009H159.103C159.073 37.1938 158.804 36.5362 158.295 36.0281C157.787 35.505 157.069 35.2435 156.142 35.2435C155.304 35.2435 154.616 35.52 154.078 36.073C153.539 36.611 153.248 37.2536 153.203 38.0009ZM159.417 40.8031L161.234 41.4308C160.92 42.4321 160.337 43.2541 159.484 43.8967C158.632 44.5244 157.6 44.8383 156.388 44.8383C154.878 44.8383 153.592 44.3226 152.53 43.2914C151.483 42.2453 150.959 40.8404 150.959 39.0769C150.959 37.433 151.468 36.073 152.485 34.9969C153.502 33.9209 154.713 33.3828 156.119 33.3828C157.749 33.3828 159.021 33.8984 159.933 34.9297C160.845 35.9459 161.301 37.3134 161.301 39.0321C161.301 39.3011 161.286 39.5253 161.257 39.7046H153.135C153.15 40.6611 153.464 41.4457 154.078 42.0585C154.706 42.6712 155.476 42.9776 156.388 42.9776C157.929 42.9776 158.938 42.2527 159.417 40.8031Z" fill="white"/>
<path opacity="0.6" d="M62.2629 18.856V14.9874H63.2115C64.2029 14.9874 65.0233 15.6108 65.0233 16.926C65.0233 18.2412 64.1943 18.856 63.203 18.856H62.2629ZM63.2457 19.9492C64.972 19.9492 66.2454 18.839 66.2454 16.926C66.2454 15.013 64.9806 13.8943 63.2542 13.8943H61.0835V19.9492H63.2457ZM69.1993 16.9175C69.1993 15.551 70.1565 14.902 71.0881 14.902C72.0282 14.902 72.9853 15.551 72.9853 16.9175C72.9853 18.2839 72.0282 18.9329 71.0881 18.9329C70.1565 18.9329 69.1993 18.2839 69.1993 16.9175ZM67.9772 16.926C67.9772 18.8731 69.4472 20.0773 71.0881 20.0773C72.7375 20.0773 74.2075 18.8731 74.2075 16.926C74.2075 14.9703 72.7375 13.7662 71.0881 13.7662C69.4472 13.7662 67.9772 14.9703 67.9772 16.926ZM81.7812 18.0789L80.4308 13.8943H79.2087L77.867 18.0618L76.756 13.8943H75.5082L77.1918 19.9492H78.4225L79.807 15.6364L81.1915 19.9492H82.405L84.0801 13.8943H82.8751L81.7812 18.0789ZM91.1166 19.9492V13.8943H89.9372V17.8996L87.416 13.8943H85.9461V19.9492H87.1255V15.6535L89.8774 19.9492H91.1166ZM97.446 19.9492V18.8219H94.7454V13.8943H93.566V19.9492H97.446ZM100.079 16.9175C100.079 15.551 101.037 14.902 101.968 14.902C102.908 14.902 103.865 15.551 103.865 16.9175C103.865 18.2839 102.908 18.9329 101.968 18.9329C101.037 18.9329 100.079 18.2839 100.079 16.9175ZM98.8572 16.926C98.8572 18.8731 100.327 20.0773 101.968 20.0773C103.618 20.0773 105.087 18.8731 105.087 16.926C105.087 14.9703 103.618 13.7662 101.968 13.7662C100.327 13.7662 98.8572 14.9703 98.8572 16.926ZM110.997 19.9492H112.279L109.971 13.8943H108.604L106.279 19.9492H107.527L108.031 18.5657H110.493L110.997 19.9492ZM109.262 15.2009L110.1 17.4896H108.424L109.262 15.2009ZM115.301 18.856V14.9874H116.25C117.241 14.9874 118.061 15.6108 118.061 16.926C118.061 18.2412 117.232 18.856 116.241 18.856H115.301ZM116.284 19.9492C118.01 19.9492 119.284 18.839 119.284 16.926C119.284 15.013 118.019 13.8943 116.292 13.8943H114.122V19.9492H116.284ZM125.418 16.9175C125.418 15.551 126.375 14.902 127.306 14.902C128.246 14.902 129.204 15.551 129.204 16.9175C129.204 18.2839 128.246 18.9329 127.306 18.9329C126.375 18.9329 125.418 18.2839 125.418 16.9175ZM124.196 16.926C124.196 18.8731 125.665 20.0773 127.306 20.0773C128.956 20.0773 130.426 18.8731 130.426 16.926C130.426 14.9703 128.956 13.7662 127.306 13.7662C125.665 13.7662 124.196 14.9703 124.196 16.926ZM137.687 19.9492V13.8943H136.507V17.8996L133.986 13.8943H132.516V19.9492H133.696V15.6535L136.448 19.9492H137.687ZM147.778 15.013V13.8943H142.761V15.013H144.676V19.9492H145.864V15.013H147.778ZM154.684 19.9492V13.8943H153.496V16.3282H150.856V13.8943H149.676V19.9492H150.856V17.4384H153.496V19.9492H154.684ZM160.932 19.9492V18.839H158.316V17.4384H160.684V16.388H158.316V15.0045H160.932V13.8943H157.137V19.9492H160.932Z" fill="white"/>
<path d="M46.3685 38.1151C45.6748 39.6503 45.3436 40.3355 44.4503 41.6919C43.2058 43.5861 41.4497 45.9453 39.2737 45.9652C37.3409 45.9833 36.8442 44.7082 34.2201 44.7236C31.5962 44.739 31.0494 45.988 29.1164 45.9699C26.9404 45.9506 25.278 43.8202 24.032 41.9247C20.5494 36.6272 20.1856 30.411 22.3334 27.1064C23.8598 24.7565 26.2688 23.3835 28.5329 23.3835C30.8384 23.3835 32.2879 24.6465 34.1948 24.6465C36.0442 24.6465 37.1706 23.3815 39.8366 23.3815C41.8517 23.3815 43.9869 24.4777 45.5086 26.3718C40.523 29.1013 41.3336 36.2129 46.3685 38.1151Z" fill="white"/>
<path d="M38.0953 20.0664C39.0641 18.824 39.7985 17.0714 39.5314 15.2786C37.9491 15.3868 36.0996 16.3929 35.0193 17.7039C34.0385 18.8935 33.2286 20.6582 33.5437 22.3735C35.2697 22.4276 37.0571 21.3967 38.0953 20.0664Z" fill="white"/>
</svg>
