<svg width="18" height="19" viewBox="0 0 18 19" fill="none" xmlns="http://www.w3.org/2000/svg">
<g clip-path="url(#clip0_50_409)">
<path d="M17.617 9.70242C17.617 8.95992 17.5609 8.41992 17.426 7.85742H8.98828V11.1987H13.9431C13.842 12.0312 13.3027 13.2799 12.1005 14.1237L12.0892 14.2362L14.752 16.3062L14.9318 16.3287C16.6396 14.7537 17.617 12.4362 17.617 9.70242Z" fill="#4285F4"/>
<path d="M8.98835 18.5001C11.4152 18.5001 13.4488 17.7013 14.9431 16.3176L12.1118 14.1126C11.3478 14.6413 10.3366 15.0126 8.99958 15.0126C6.61769 15.0126 4.60656 13.4376 3.8875 11.2776L3.78638 11.2888L1.00001 13.4376L0.966309 13.5388C2.43814 16.4751 5.47168 18.5001 8.98835 18.5001Z" fill="#34A853"/>
<path d="M3.87619 11.2775C3.68519 10.715 3.57284 10.1188 3.57284 9.50001C3.57284 8.88126 3.68519 8.28501 3.86496 7.72251V7.59876L1.05612 5.41626L0.96624 5.46126C0.348296 6.67626 0 8.04876 0 9.50001C0 10.9513 0.348296 12.3238 0.955004 13.5388L3.87619 11.2775Z" fill="#FBBC05"/>
<path d="M8.98835 3.97625C10.6737 3.97625 11.8197 4.7075 12.4601 5.315L14.9993 2.84C13.4375 1.38875 11.4152 0.5 8.98835 0.5C5.47169 0.5 2.43814 2.525 0.955078 5.46125L3.86503 7.7225C4.59533 5.55125 6.60646 3.97625 8.98835 3.97625Z" fill="#EB4335"/>
</g>
<defs>
<clipPath id="clip0_50_409">
<rect y="0.5" width="18" height="18" rx="9" fill="white"/>
</clipPath>
</defs>
</svg>
