<svg width="16" height="17" viewBox="0 0 16 17" fill="none" xmlns="http://www.w3.org/2000/svg">
<path d="M13.006 2.00827H11.5053V1.50804C11.5053 1.37537 11.4526 1.24814 11.3588 1.15433C11.265 1.06052 11.1378 1.00781 11.0051 1.00781C10.8724 1.00781 10.7452 1.06052 10.6514 1.15433C10.5576 1.24814 10.5049 1.37537 10.5049 1.50804V2.00827H5.50258V1.50804C5.50258 1.37537 5.44988 1.24814 5.35607 1.15433C5.26226 1.06052 5.13502 1.00781 5.00235 1.00781C4.86968 1.00781 4.74245 1.06052 4.64864 1.15433C4.55483 1.24814 4.50212 1.37537 4.50212 1.50804V2.00827H3.00144C2.7361 2.00827 2.48163 2.11368 2.294 2.3013C2.10638 2.48892 2.00098 2.74339 2.00098 3.00873V13.0133C2.00098 13.2787 2.10638 13.5331 2.294 13.7207C2.48163 13.9084 2.7361 14.0138 3.00144 14.0138H13.006C13.2714 14.0138 13.5258 13.9084 13.7135 13.7207C13.9011 13.5331 14.0065 13.2787 14.0065 13.0133V3.00873C14.0065 2.74339 13.9011 2.48892 13.7135 2.3013C13.5258 2.11368 13.2714 2.00827 13.006 2.00827ZM4.50212 3.00873V3.50896C4.50212 3.64163 4.55483 3.76886 4.64864 3.86268C4.74245 3.95649 4.86968 4.00919 5.00235 4.00919C5.13502 4.00919 5.26226 3.95649 5.35607 3.86268C5.44988 3.76886 5.50258 3.64163 5.50258 3.50896V3.00873H10.5049V3.50896C10.5049 3.64163 10.5576 3.76886 10.6514 3.86268C10.7452 3.95649 10.8724 4.00919 11.0051 4.00919C11.1378 4.00919 11.265 3.95649 11.3588 3.86268C11.4526 3.76886 11.5053 3.64163 11.5053 3.50896V3.00873H13.006V5.00965H3.00144V3.00873H4.50212ZM13.006 13.0133H3.00144V6.01011H13.006V13.0133ZM7.00327 7.5108V11.5126C7.00327 11.6453 6.95057 11.7725 6.85676 11.8663C6.76295 11.9602 6.63571 12.0129 6.50304 12.0129C6.37037 12.0129 6.24314 11.9602 6.14933 11.8663C6.05551 11.7725 6.00281 11.6453 6.00281 11.5126V8.31992L5.72644 8.45873C5.6077 8.5181 5.47024 8.52787 5.34429 8.48589C5.21835 8.44391 5.11425 8.35362 5.05488 8.23488C4.99551 8.11614 4.98574 7.97868 5.02772 7.85274C5.0697 7.7268 5.15999 7.62269 5.27873 7.56332L6.27919 7.06309C6.35548 7.02491 6.44027 7.00688 6.5255 7.01071C6.61072 7.01454 6.69355 7.0401 6.76611 7.08497C6.83867 7.12983 6.89855 7.19251 6.94006 7.26704C6.98157 7.34157 7.00333 7.42548 7.00327 7.5108ZM10.7025 9.41479L9.50442 11.0124H10.5049C10.6375 11.0124 10.7648 11.0651 10.8586 11.1589C10.9524 11.2527 11.0051 11.38 11.0051 11.5126C11.0051 11.6453 10.9524 11.7725 10.8586 11.8663C10.7648 11.9602 10.6375 12.0129 10.5049 12.0129H8.50396C8.41106 12.0129 8.32 11.987 8.24097 11.9382C8.16195 11.8893 8.09809 11.8194 8.05654 11.7363C8.015 11.6532 7.99741 11.5602 8.00575 11.4677C8.01409 11.3752 8.04804 11.2868 8.10378 11.2125L9.90335 8.81327C9.94428 8.75877 9.97365 8.69649 9.98965 8.63024C10.0056 8.56399 10.0079 8.49517 9.99637 8.428C9.98482 8.36084 9.95966 8.29674 9.92244 8.23965C9.88521 8.18255 9.83672 8.13367 9.77993 8.09599C9.72313 8.05831 9.65924 8.03264 9.59217 8.02054C9.5251 8.00845 9.45626 8.01019 9.38988 8.02565C9.32351 8.04112 9.26099 8.06998 9.20617 8.11048C9.15135 8.15097 9.10539 8.20224 9.07109 8.26114C9.03922 8.31984 8.99591 8.37157 8.94372 8.41326C8.89152 8.45495 8.83151 8.48577 8.76722 8.5039C8.70292 8.52202 8.63565 8.52708 8.56937 8.51879C8.50309 8.51049 8.43914 8.489 8.38129 8.45559C8.32345 8.42218 8.27288 8.37752 8.23258 8.32425C8.19227 8.27098 8.16305 8.21018 8.14662 8.14543C8.1302 8.08068 8.12691 8.0133 8.13695 7.94726C8.14699 7.88121 8.17015 7.81785 8.20507 7.76091C8.37031 7.47496 8.62527 7.2515 8.93041 7.12518C9.23556 6.99886 9.57386 6.97672 9.89286 7.06221C10.2119 7.1477 10.4938 7.33603 10.6949 7.59801C10.8959 7.85999 11.005 8.18099 11.0051 8.51125C11.0062 8.83749 10.8998 9.15501 10.7025 9.41479Z" fill="black"/>
</svg>
