<svg width="13" height="15" viewBox="0 0 13 15" fill="none" xmlns="http://www.w3.org/2000/svg">
<path d="M6.5 2.5C5.31332 2.5 4.15328 2.85189 3.16658 3.51118C2.17989 4.17047 1.41085 5.10754 0.956726 6.2039C0.5026 7.30026 0.38378 8.50666 0.615291 9.67054C0.846802 10.8344 1.41825 11.9035 2.25736 12.7426C3.09648 13.5818 4.16558 14.1532 5.32946 14.3847C6.49335 14.6162 7.69975 14.4974 8.7961 14.0433C9.89246 13.5892 10.8295 12.8201 11.4888 11.8334C12.1481 10.8467 12.5 9.68669 12.5 8.5C12.4982 6.90926 11.8655 5.38419 10.7406 4.25937C9.61581 3.13454 8.09074 2.50182 6.5 2.5ZM6.5 13.5C5.5111 13.5 4.5444 13.2068 3.72215 12.6573C2.89991 12.1079 2.25904 11.327 1.88061 10.4134C1.50217 9.49979 1.40315 8.49445 1.59608 7.52455C1.789 6.55464 2.26521 5.66373 2.96447 4.96447C3.66373 4.2652 4.55465 3.789 5.52455 3.59607C6.49446 3.40315 7.49979 3.50216 8.41342 3.8806C9.32705 4.25904 10.1079 4.8999 10.6574 5.72215C11.2068 6.54439 11.5 7.51109 11.5 8.5C11.4985 9.82563 10.9713 11.0965 10.0339 12.0339C9.09653 12.9712 7.82563 13.4985 6.5 13.5ZM9.35375 5.64625C9.40024 5.69269 9.43712 5.74783 9.46228 5.80853C9.48745 5.86923 9.5004 5.93429 9.5004 6C9.5004 6.06571 9.48745 6.13077 9.46228 6.19147C9.43712 6.25217 9.40024 6.30731 9.35375 6.35375L6.85375 8.85375C6.8073 8.90021 6.75215 8.93706 6.69145 8.9622C6.63076 8.98734 6.5657 9.00028 6.5 9.00028C6.43431 9.00028 6.36925 8.98734 6.30856 8.9622C6.24786 8.93706 6.19271 8.90021 6.14625 8.85375C6.0998 8.8073 6.06295 8.75214 6.03781 8.69145C6.01267 8.63075 5.99973 8.5657 5.99973 8.5C5.99973 8.4343 6.01267 8.36925 6.03781 8.30855C6.06295 8.24786 6.0998 8.1927 6.14625 8.14625L8.64625 5.64625C8.69269 5.59976 8.74783 5.56288 8.80853 5.53772C8.86923 5.51256 8.9343 5.49961 9 5.49961C9.06571 5.49961 9.13077 5.51256 9.19147 5.53772C9.25217 5.56288 9.30732 5.59976 9.35375 5.64625ZM4.5 1C4.5 0.867392 4.55268 0.740215 4.64645 0.646447C4.74022 0.552678 4.8674 0.5 5 0.5H8C8.13261 0.5 8.25979 0.552678 8.35356 0.646447C8.44733 0.740215 8.5 0.867392 8.5 1C8.5 1.13261 8.44733 1.25979 8.35356 1.35355C8.25979 1.44732 8.13261 1.5 8 1.5H5C4.8674 1.5 4.74022 1.44732 4.64645 1.35355C4.55268 1.25979 4.5 1.13261 4.5 1Z" fill="black"/>
</svg>
