<svg width="14" height="15" viewBox="0 0 14 15" fill="none" xmlns="http://www.w3.org/2000/svg">
<path fill-rule="evenodd" clip-rule="evenodd" d="M4.06506 1.9403C4.1057 1.89956 4.15397 1.86723 4.20713 1.84518C4.26028 1.82312 4.31726 1.81177 4.37481 1.81177C4.43235 1.81177 4.48933 1.82312 4.54248 1.84518C4.59564 1.86723 4.64392 1.89956 4.68456 1.9403L9.93456 7.1903C9.9753 7.23094 10.0076 7.27922 10.0297 7.33237C10.0517 7.38552 10.0631 7.4425 10.0631 7.50005C10.0631 7.5576 10.0517 7.61458 10.0297 7.66773C10.0076 7.72088 9.9753 7.76916 9.93456 7.8098L4.68456 13.0598C4.6024 13.142 4.49098 13.1881 4.37481 13.1881C4.25863 13.1881 4.14721 13.142 4.06506 13.0598C3.9829 12.9776 3.93675 12.8662 3.93675 12.75C3.93675 12.6339 3.9829 12.5225 4.06506 12.4403L9.00618 7.50005L4.06506 2.5598C4.02431 2.51916 3.99199 2.47088 3.96993 2.41773C3.94788 2.36458 3.93652 2.3076 3.93652 2.25005C3.93652 2.1925 3.94788 2.13552 3.96993 2.08237C3.99199 2.02922 4.02431 1.98094 4.06506 1.9403V1.9403Z" fill="white"/>
</svg>
