<svg width="10" height="11" viewBox="0 0 10 11" fill="none" xmlns="http://www.w3.org/2000/svg">
<mask id="path-1-inside-1_57_7453" fill="white">
<path fill-rule="evenodd" clip-rule="evenodd" d="M2.90382 1.52882C2.93285 1.49972 2.96733 1.47663 3.0053 1.46088C3.04326 1.44512 3.08397 1.43701 3.12507 1.43701C3.16617 1.43701 3.20688 1.44512 3.24484 1.46088C3.28281 1.47663 3.31729 1.49972 3.34632 1.52882L7.09632 5.27882C7.12542 5.30785 7.14851 5.34233 7.16426 5.3803C7.18002 5.41827 7.18813 5.45897 7.18813 5.50007C7.18813 5.54118 7.18002 5.58188 7.16426 5.61984C7.14851 5.65781 7.12542 5.69229 7.09632 5.72132L3.34632 9.47132C3.28764 9.53 3.20806 9.56297 3.12507 9.56297C3.04209 9.56297 2.9625 9.53 2.90382 9.47132C2.84514 9.41264 2.81218 9.33306 2.81218 9.25007C2.81218 9.16709 2.84514 9.0875 2.90382 9.02882L6.4332 5.50007L2.90382 1.97132C2.87472 1.94229 2.85163 1.90781 2.83587 1.86984C2.82012 1.83188 2.81201 1.79117 2.81201 1.75007C2.81201 1.70897 2.82012 1.66827 2.83587 1.6303C2.85163 1.59233 2.87472 1.55785 2.90382 1.52882V1.52882Z"/>
</mask>
<path fill-rule="evenodd" clip-rule="evenodd" d="M2.90382 1.52882C2.93285 1.49972 2.96733 1.47663 3.0053 1.46088C3.04326 1.44512 3.08397 1.43701 3.12507 1.43701C3.16617 1.43701 3.20688 1.44512 3.24484 1.46088C3.28281 1.47663 3.31729 1.49972 3.34632 1.52882L7.09632 5.27882C7.12542 5.30785 7.14851 5.34233 7.16426 5.3803C7.18002 5.41827 7.18813 5.45897 7.18813 5.50007C7.18813 5.54118 7.18002 5.58188 7.16426 5.61984C7.14851 5.65781 7.12542 5.69229 7.09632 5.72132L3.34632 9.47132C3.28764 9.53 3.20806 9.56297 3.12507 9.56297C3.04209 9.56297 2.9625 9.53 2.90382 9.47132C2.84514 9.41264 2.81218 9.33306 2.81218 9.25007C2.81218 9.16709 2.84514 9.0875 2.90382 9.02882L6.4332 5.50007L2.90382 1.97132C2.87472 1.94229 2.85163 1.90781 2.83587 1.86984C2.82012 1.83188 2.81201 1.79117 2.81201 1.75007C2.81201 1.70897 2.82012 1.66827 2.83587 1.6303C2.85163 1.59233 2.87472 1.55785 2.90382 1.52882V1.52882Z" fill="#1F2937"/>
<path d="M3.34632 1.52882L2.63832 2.23503L2.63921 2.23593L3.34632 1.52882ZM7.09632 5.27882L6.38921 5.98593L6.39011 5.98682L7.09632 5.27882ZM7.09632 5.72132L6.39011 5.01332L6.38921 5.01421L7.09632 5.72132ZM3.34632 9.47132L2.63921 8.76421L3.34632 9.47132ZM2.90382 9.02882L2.19678 8.32165L2.19671 8.32171L2.90382 9.02882ZM6.4332 5.50007L7.14024 6.20724L7.84753 5.50007L7.14024 4.7929L6.4332 5.50007ZM2.90382 1.97132L3.61086 1.26415L3.61003 1.26332L2.90382 1.97132ZM3.61182 2.23503C3.54796 2.29906 3.47209 2.34985 3.38857 2.38451L2.62203 0.537238C2.46258 0.603405 2.31774 0.70038 2.19582 0.822608L3.61182 2.23503ZM3.38857 2.38451C3.30504 2.41917 3.2155 2.43701 3.12507 2.43701V0.437012C2.95243 0.437012 2.78149 0.471071 2.62203 0.537238L3.38857 2.38451ZM3.12507 2.43701C3.03464 2.43701 2.9451 2.41917 2.86157 2.38451L3.62811 0.537238C3.46865 0.471071 3.29771 0.437012 3.12507 0.437012V2.43701ZM2.86157 2.38451C2.77805 2.34985 2.70218 2.29906 2.63832 2.23503L4.05432 0.822608C3.9324 0.70038 3.78756 0.603405 3.62811 0.537238L2.86157 2.38451ZM2.63921 2.23593L6.38921 5.98593L7.80343 4.57171L4.05343 0.821714L2.63921 2.23593ZM6.39011 5.98682C6.32608 5.92295 6.27528 5.84709 6.24063 5.76357L8.0879 4.99703C8.02174 4.83758 7.92476 4.69274 7.80253 4.57082L6.39011 5.98682ZM6.24063 5.76357C6.20597 5.68004 6.18813 5.5905 6.18813 5.50007H8.18813C8.18813 5.32743 8.15407 5.15649 8.0879 4.99703L6.24063 5.76357ZM6.18813 5.50007C6.18813 5.40964 6.20597 5.3201 6.24063 5.23657L8.0879 6.00311C8.15407 5.84365 8.18813 5.67271 8.18813 5.50007H6.18813ZM6.24063 5.23657C6.27528 5.15305 6.32608 5.07719 6.39011 5.01332L7.80253 6.42932C7.92476 6.3074 8.02174 6.16256 8.0879 6.00311L6.24063 5.23657ZM6.38921 5.01421L2.63921 8.76421L4.05343 10.1784L7.80343 6.42843L6.38921 5.01421ZM2.63921 8.76421C2.76807 8.63536 2.94284 8.56297 3.12507 8.56297V10.563C3.47327 10.563 3.80721 10.4246 4.05343 10.1784L2.63921 8.76421ZM3.12507 8.56297C3.3073 8.56297 3.48207 8.63536 3.61093 8.76421L2.19671 10.1784C2.44293 10.4246 2.77687 10.563 3.12507 10.563V8.56297ZM3.61093 8.76421C3.73978 8.89307 3.81218 9.06784 3.81218 9.25007H1.81218C1.81218 9.59827 1.9505 9.93221 2.19671 10.1784L3.61093 8.76421ZM3.81218 9.25007C3.81218 9.4323 3.73978 9.60707 3.61093 9.73593L2.19671 8.32171C1.9505 8.56793 1.81218 8.90187 1.81218 9.25007H3.81218ZM3.61086 9.73599L7.14024 6.20724L5.72615 4.7929L2.19678 8.32165L3.61086 9.73599ZM7.14024 4.7929L3.61086 1.26415L2.19678 2.67849L5.72615 6.20724L7.14024 4.7929ZM3.61003 1.26332C3.67406 1.32718 3.72485 1.40305 3.75951 1.48657L1.91224 2.25311C1.9784 2.41257 2.07538 2.5574 2.19761 2.67932L3.61003 1.26332ZM3.75951 1.48657C3.79417 1.5701 3.81201 1.65964 3.81201 1.75007H1.81201C1.81201 1.92271 1.84607 2.09365 1.91224 2.25311L3.75951 1.48657ZM3.81201 1.75007C3.81201 1.8405 3.79417 1.93004 3.75951 2.01357L1.91224 1.24703C1.84607 1.40649 1.81201 1.57744 1.81201 1.75007H3.81201ZM3.75951 2.01357C3.72485 2.09709 3.67406 2.17296 3.61003 2.23682L2.19761 0.82082C2.07538 0.94274 1.9784 1.08758 1.91224 1.24703L3.75951 2.01357Z" fill="#1F2937" mask="url(#path-1-inside-1_57_7453)"/>
</svg>
