<svg width="11" height="7" viewBox="0 0 11 7" fill="none" xmlns="http://www.w3.org/2000/svg">
<path d="M10.8538 1.35375L5.85378 6.35375C5.80735 6.40024 5.7522 6.43712 5.6915 6.46228C5.6308 6.48745 5.56574 6.5004 5.50003 6.5004C5.43433 6.5004 5.36926 6.48745 5.30856 6.46228C5.24786 6.43712 5.19272 6.40024 5.14628 6.35375L0.146284 1.35375C0.0524635 1.25993 -0.000244141 1.13269 -0.000244141 1C-0.000244141 0.867321 0.0524635 0.740073 0.146284 0.646253C0.240104 0.552433 0.367352 0.499725 0.500034 0.499725C0.632716 0.499725 0.759964 0.552433 0.853784 0.646253L5.50003 5.29313L10.1463 0.646253C10.1927 0.599798 10.2479 0.562948 10.3086 0.537807C10.3693 0.512665 10.4343 0.499725 10.5 0.499725C10.5657 0.499725 10.6308 0.512665 10.6915 0.537807C10.7522 0.562948 10.8073 0.599798 10.8538 0.646253C10.9002 0.692708 10.9371 0.747859 10.9622 0.808555C10.9874 0.869252 11.0003 0.934306 11.0003 1C11.0003 1.0657 10.9874 1.13076 10.9622 1.19145C10.9371 1.25215 10.9002 1.3073 10.8538 1.35375Z" fill="black"/>
</svg>
