<svg width="61" height="60" viewBox="0 0 61 60" fill="none" xmlns="http://www.w3.org/2000/svg">
<circle cx="30.8014" cy="30" r="30" fill="#FF7917" fill-opacity="0.1"/>
<path d="M30.8014 16.25C27.8347 16.25 24.9346 17.1297 22.4678 18.778C20.0011 20.4262 18.0785 22.7689 16.9432 25.5097C15.8079 28.2506 15.5108 31.2666 16.0896 34.1764C16.6684 37.0861 18.097 39.7588 20.1948 41.8566C22.2926 43.9544 24.9653 45.383 27.875 45.9618C30.7848 46.5406 33.8008 46.2435 36.5417 45.1082C39.2825 43.9729 41.6252 42.0503 43.2734 39.5836C44.9217 37.1168 45.8014 34.2167 45.8014 31.25C45.7969 27.2731 44.215 23.4605 41.403 20.6484C38.5909 17.8364 34.7783 16.2545 30.8014 16.25ZM30.8014 43.75C28.3291 43.75 25.9124 43.0169 23.8568 41.6434C21.8012 40.2699 20.199 38.3176 19.2529 36.0335C18.3068 33.7495 18.0593 31.2361 18.5416 28.8114C19.0239 26.3866 20.2144 24.1593 21.9626 22.4112C23.7107 20.663 25.938 19.4725 28.3628 18.9902C30.7875 18.5079 33.3009 18.7554 35.5849 19.7015C37.869 20.6476 39.8213 22.2498 41.1948 24.3054C42.5683 26.361 43.3014 28.7777 43.3014 31.25C43.2977 34.5641 41.9795 37.7413 39.6361 40.0847C37.2927 42.4281 34.1155 43.7463 30.8014 43.75ZM37.9358 24.1156C38.052 24.2317 38.1442 24.3696 38.2071 24.5213C38.27 24.6731 38.3024 24.8357 38.3024 25C38.3024 25.1643 38.27 25.3269 38.2071 25.4787C38.1442 25.6304 38.052 25.7683 37.9358 25.8844L31.6858 32.1344C31.5696 32.2505 31.4318 32.3426 31.28 32.4055C31.1283 32.4683 30.9656 32.5007 30.8014 32.5007C30.6372 32.5007 30.4745 32.4683 30.3228 32.4055C30.171 32.3426 30.0332 32.2505 29.917 32.1344C29.8009 32.0182 29.7088 31.8804 29.6459 31.7286C29.5831 31.5769 29.5507 31.4142 29.5507 31.25C29.5507 31.0858 29.5831 30.9231 29.6459 30.7714C29.7088 30.6196 29.8009 30.4818 29.917 30.3656L36.167 24.1156C36.2831 23.9994 36.421 23.9072 36.5727 23.8443C36.7245 23.7814 36.8871 23.749 37.0514 23.749C37.2157 23.749 37.3783 23.7814 37.5301 23.8443C37.6818 23.9072 37.8197 23.9994 37.9358 24.1156ZM25.8014 12.5C25.8014 12.1685 25.9331 11.8505 26.1675 11.6161C26.4019 11.3817 26.7199 11.25 27.0514 11.25H34.5514C34.8829 11.25 35.2009 11.3817 35.4353 11.6161C35.6697 11.8505 35.8014 12.1685 35.8014 12.5C35.8014 12.8315 35.6697 13.1495 35.4353 13.3839C35.2009 13.6183 34.8829 13.75 34.5514 13.75H27.0514C26.7199 13.75 26.4019 13.6183 26.1675 13.3839C25.9331 13.1495 25.8014 12.8315 25.8014 12.5Z" fill="#5D2C02"/>
</svg>
