<svg width="60" height="60" viewBox="0 0 60 60" fill="none" xmlns="http://www.w3.org/2000/svg">
<circle cx="30.0071" cy="30" r="30" fill="#FF7917" fill-opacity="0.1"/>
<path d="M30.0071 13.75C26.7931 13.75 23.6513 14.703 20.979 16.4886C18.3067 18.2742 16.2239 20.8121 14.994 23.7814C13.7641 26.7507 13.4423 30.018 14.0693 33.1702C14.6963 36.3224 16.244 39.2179 18.5166 41.4905C20.7892 43.7631 23.6846 45.3107 26.8368 45.9378C29.989 46.5648 33.2564 46.243 36.2257 45.013C39.195 43.7831 41.7329 41.7003 43.5184 39.028C45.304 36.3557 46.2571 33.2139 46.2571 30C46.2525 25.6916 44.539 21.561 41.4925 18.5145C38.446 15.4681 34.3154 13.7545 30.0071 13.75ZM30.0071 43.75C27.2876 43.75 24.6291 42.9436 22.368 41.4327C20.1068 39.9218 18.3444 37.7744 17.3037 35.2619C16.263 32.7494 15.9907 29.9847 16.5213 27.3175C17.0518 24.6503 18.3614 22.2003 20.2843 20.2773C22.2073 18.3543 24.6573 17.0447 27.3246 16.5142C29.9918 15.9837 32.7565 16.256 35.2689 17.2967C37.7814 18.3374 39.9289 20.0997 41.4398 22.3609C42.9506 24.6221 43.7571 27.2805 43.7571 30C43.7529 33.6455 42.3029 37.1404 39.7252 39.7182C37.1475 42.2959 33.6525 43.7459 30.0071 43.75ZM36.2571 33.125C36.2571 34.2853 35.7961 35.3981 34.9756 36.2186C34.1552 37.0391 33.0424 37.5 31.8821 37.5H31.2571V38.75C31.2571 39.0815 31.1254 39.3995 30.8909 39.6339C30.6565 39.8683 30.3386 40 30.0071 40C29.6755 40 29.3576 39.8683 29.1232 39.6339C28.8887 39.3995 28.7571 39.0815 28.7571 38.75V37.5H26.2571C25.9255 37.5 25.6076 37.3683 25.3732 37.1339C25.1387 36.8995 25.0071 36.5815 25.0071 36.25C25.0071 35.9185 25.1387 35.6005 25.3732 35.3661C25.6076 35.1317 25.9255 35 26.2571 35H31.8821C32.3793 35 32.8562 34.8025 33.2079 34.4508C33.5595 34.0992 33.7571 33.6223 33.7571 33.125C33.7571 32.6277 33.5595 32.1508 33.2079 31.7992C32.8562 31.4475 32.3793 31.25 31.8821 31.25H28.1321C26.9717 31.25 25.8589 30.7891 25.0385 29.9686C24.218 29.1481 23.7571 28.0353 23.7571 26.875C23.7571 25.7147 24.218 24.6019 25.0385 23.7814C25.8589 22.9609 26.9717 22.5 28.1321 22.5H28.7571V21.25C28.7571 20.9185 28.8887 20.6005 29.1232 20.3661C29.3576 20.1317 29.6755 20 30.0071 20C30.3386 20 30.6565 20.1317 30.8909 20.3661C31.1254 20.6005 31.2571 20.9185 31.2571 21.25V22.5H33.7571C34.0886 22.5 34.4065 22.6317 34.6409 22.8661C34.8754 23.1005 35.0071 23.4185 35.0071 23.75C35.0071 24.0815 34.8754 24.3995 34.6409 24.6339C34.4065 24.8683 34.0886 25 33.7571 25H28.1321C27.6348 25 27.1579 25.1975 26.8062 25.5492C26.4546 25.9008 26.2571 26.3777 26.2571 26.875C26.2571 27.3723 26.4546 27.8492 26.8062 28.2008C27.1579 28.5525 27.6348 28.75 28.1321 28.75H31.8821C33.0424 28.75 34.1552 29.2109 34.9756 30.0314C35.7961 30.8519 36.2571 31.9647 36.2571 33.125Z" fill="#5D2C02"/>
</svg>
