<svg width="35" height="34" viewBox="0 0 35 34" fill="none" xmlns="http://www.w3.org/2000/svg">
<circle cx="17.4584" cy="17.3206" r="16" transform="rotate(-2.3 17.4584 17.3206)" fill="white"/>
<path d="M14.7824 12.926L21.2802 12.665C21.4128 12.6597 21.542 12.7072 21.6395 12.7972C21.737 12.8871 21.7948 13.0122 21.8001 13.1447L22.0611 19.6425C22.0664 19.775 22.0188 19.9043 21.9289 20.0018C21.8389 20.0993 21.7139 20.157 21.5813 20.1624C21.4488 20.1677 21.3195 20.1201 21.222 20.0302C21.1245 19.9402 21.0667 19.8152 21.0614 19.6826L20.8489 14.3913L13.9921 21.8227C13.9021 21.9202 13.777 21.978 13.6443 21.9833C13.5117 21.9887 13.3824 21.9411 13.2848 21.8511C13.1873 21.761 13.1295 21.6359 13.1241 21.5033C13.1188 21.3707 13.1664 21.2414 13.2564 21.1438L20.1139 13.7131L14.8226 13.9256C14.69 13.9309 14.5608 13.8834 14.4633 13.7934C14.3658 13.7034 14.308 13.5784 14.3027 13.4459C14.2974 13.3133 14.3449 13.184 14.4349 13.0865C14.5249 12.989 14.6499 12.9313 14.7824 12.926Z" fill="black"/>
</svg>
