<svg width="61" height="60" viewBox="0 0 61 60" fill="none" xmlns="http://www.w3.org/2000/svg">
<circle cx="30.61" cy="30" r="30" fill="#FF7917" fill-opacity="0.1"/>
<path d="M42.9631 22.6046C41.3428 20.9807 39.417 19.6935 37.2969 18.8174C35.1767 17.9412 32.9041 17.4935 30.61 17.4999H30.5475C20.9334 17.5328 13.11 25.4687 13.11 35.1765V38.7499C13.11 39.413 13.3734 40.0489 13.8422 40.5177C14.3111 40.9866 14.947 41.2499 15.61 41.2499H45.61C46.273 41.2499 46.9089 40.9866 47.3778 40.5177C47.8466 40.0489 48.11 39.413 48.11 38.7499V34.9999C48.1164 32.6959 47.6647 30.4135 46.7811 28.2855C45.8975 26.1576 44.5997 24.2265 42.9631 22.6046ZM45.61 38.7499H29.3147L37.8709 26.9843C38.0661 26.7162 38.1468 26.3815 38.0952 26.0539C38.0437 25.7263 37.8641 25.4326 37.5959 25.2374C37.3278 25.0423 36.9932 24.9616 36.6655 25.0132C36.3379 25.0647 36.0442 25.2443 35.8491 25.5124L26.2225 38.7499H15.61V35.1765C15.61 34.6953 15.6334 34.2203 15.6772 33.7499H19.36C19.6915 33.7499 20.0095 33.6183 20.2439 33.3838C20.4783 33.1494 20.61 32.8315 20.61 32.4999C20.61 32.1684 20.4783 31.8505 20.2439 31.6161C20.0095 31.3816 19.6915 31.2499 19.36 31.2499H16.1209C17.7334 25.1781 22.9959 20.5874 29.36 20.0531V23.7499C29.36 24.0815 29.4917 24.3994 29.7261 24.6338C29.9605 24.8683 30.2785 24.9999 30.61 24.9999C30.9415 24.9999 31.2595 24.8683 31.4939 24.6338C31.7283 24.3994 31.86 24.0815 31.86 23.7499V20.0515C34.961 20.3125 37.9045 21.5301 40.2836 23.5361C42.6627 25.5422 44.3601 28.2376 45.1413 31.2499H41.86C41.5285 31.2499 41.2105 31.3816 40.9761 31.6161C40.7417 31.8505 40.61 32.1684 40.61 32.4999C40.61 32.8315 40.7417 33.1494 40.9761 33.3838C41.2105 33.6183 41.5285 33.7499 41.86 33.7499H45.5584C45.5913 34.164 45.61 34.5796 45.61 34.9999V38.7499Z" fill="#5D2C02"/>
</svg>
