<svg width="61" height="60" viewBox="0 0 61 60" fill="none" xmlns="http://www.w3.org/2000/svg">
<circle cx="30.5" cy="30" r="30" fill="#FF7917" fill-opacity="0.1"/>
<path d="M42.8531 22.6046C41.2328 20.9807 39.307 19.6935 37.1869 18.8174C35.0667 17.9412 32.7941 17.4935 30.5 17.4999H30.4375C20.8234 17.5328 13 25.4687 13 35.1765V38.7499C13 39.413 13.2634 40.0489 13.7322 40.5177C14.2011 40.9866 14.837 41.2499 15.5 41.2499H45.5C46.163 41.2499 46.7989 40.9866 47.2678 40.5177C47.7366 40.0489 48 39.413 48 38.7499V34.9999C48.0064 32.6959 47.5547 30.4135 46.6711 28.2855C45.7875 26.1576 44.4897 24.2265 42.8531 22.6046ZM45.5 38.7499H29.2047L37.7609 26.9843C37.9561 26.7162 38.0368 26.3815 37.9852 26.0539C37.9337 25.7263 37.7541 25.4326 37.4859 25.2374C37.2178 25.0423 36.8832 24.9616 36.5555 25.0132C36.2279 25.0647 35.9342 25.2443 35.7391 25.5124L26.1125 38.7499H15.5V35.1765C15.5 34.6953 15.5234 34.2203 15.5672 33.7499H19.25C19.5815 33.7499 19.8995 33.6183 20.1339 33.3838C20.3683 33.1494 20.5 32.8315 20.5 32.4999C20.5 32.1684 20.3683 31.8505 20.1339 31.6161C19.8995 31.3816 19.5815 31.2499 19.25 31.2499H16.0109C17.6234 25.1781 22.8859 20.5874 29.25 20.0531V23.7499C29.25 24.0815 29.3817 24.3994 29.6161 24.6338C29.8505 24.8683 30.1685 24.9999 30.5 24.9999C30.8315 24.9999 31.1495 24.8683 31.3839 24.6338C31.6183 24.3994 31.75 24.0815 31.75 23.7499V20.0515C34.851 20.3125 37.7945 21.5301 40.1736 23.5361C42.5527 25.5422 44.2501 28.2376 45.0313 31.2499H41.75C41.4185 31.2499 41.1005 31.3816 40.8661 31.6161C40.6317 31.8505 40.5 32.1684 40.5 32.4999C40.5 32.8315 40.6317 33.1494 40.8661 33.3838C41.1005 33.6183 41.4185 33.7499 41.75 33.7499H45.4484C45.4813 34.164 45.5 34.5796 45.5 34.9999V38.7499Z" fill="#5D2C02"/>
</svg>
