<svg width="61" height="60" viewBox="0 0 61 60" fill="none" xmlns="http://www.w3.org/2000/svg">
<circle cx="30.4043" cy="30" r="30" fill="#FF7917" fill-opacity="0.1"/>
<path d="M48.6543 33.5C48.5229 33.5985 48.3735 33.6701 48.2145 33.7109C48.0555 33.7516 47.89 33.7606 47.7275 33.7374C47.565 33.7142 47.4086 33.6592 47.2674 33.5756C47.1261 33.492 47.0028 33.3813 46.9043 33.25C46.1508 32.2373 45.1702 31.4156 44.0412 30.8511C42.9122 30.2866 41.6665 29.9951 40.4043 30C40.1585 30 39.9181 29.9275 39.7133 29.7916C39.5085 29.6557 39.3483 29.4624 39.2527 29.2359C39.1878 29.0821 39.1544 28.9169 39.1544 28.75C39.1544 28.5831 39.1878 28.4178 39.2527 28.2641C39.3483 28.0376 39.5085 27.8443 39.7133 27.7084C39.9181 27.5725 40.1585 27.5 40.4043 27.5C41.1056 27.4999 41.7929 27.3032 42.3881 26.9321C42.9832 26.561 43.4624 26.0304 43.7711 25.4007C44.0798 24.7709 44.2057 24.0672 44.1346 23.3695C44.0634 22.6717 43.798 22.0079 43.3685 21.4535C42.939 20.899 42.3626 20.4761 41.7047 20.2328C41.0469 19.9895 40.3341 19.9356 39.6471 20.0772C38.9602 20.2187 38.3267 20.5501 37.8187 21.0336C37.3106 21.5171 36.9484 22.1334 36.773 22.8125C36.732 22.9715 36.66 23.1209 36.5612 23.2521C36.4625 23.3833 36.3388 23.4938 36.1974 23.5772C36.0559 23.6607 35.8994 23.7154 35.7368 23.7383C35.5741 23.7613 35.4086 23.752 35.2496 23.7109C35.0906 23.6699 34.9412 23.5979 34.81 23.4992C34.6787 23.4004 34.5683 23.2767 34.4848 23.1353C34.4014 22.9938 34.3467 22.8373 34.3237 22.6747C34.3008 22.5121 34.3101 22.3465 34.3511 22.1875C34.5945 21.2458 35.0543 20.3739 35.6939 19.6412C36.3336 18.9084 37.1354 18.3351 38.0356 17.9668C38.9358 17.5985 39.9095 17.4453 40.8793 17.5196C41.8491 17.5938 42.7882 17.8934 43.6219 18.3944C44.4555 18.8954 45.1608 19.5841 45.6814 20.4056C46.2021 21.2272 46.5238 22.1589 46.621 23.1267C46.7182 24.0944 46.5882 25.0715 46.2414 25.9802C45.8945 26.8889 45.3404 27.7041 44.623 28.3609C46.3227 29.0969 47.8003 30.2647 48.909 31.7484C49.0074 31.8801 49.079 32.0299 49.1195 32.1892C49.16 32.3486 49.1687 32.5143 49.145 32.6771C49.1214 32.8398 49.0658 32.9962 48.9816 33.1374C48.8974 33.2786 48.7862 33.4018 48.6543 33.5ZM40.2355 43.125C40.326 43.2673 40.3867 43.4264 40.414 43.5927C40.4414 43.7591 40.4348 43.9292 40.3947 44.093C40.3546 44.2567 40.2818 44.4107 40.1807 44.5455C40.0795 44.6804 39.9521 44.7934 39.8062 44.8778C39.6602 44.9622 39.4987 45.0161 39.3313 45.0365C39.164 45.0568 38.9943 45.0431 38.8323 44.9961C38.6704 44.9491 38.5197 44.8699 38.3892 44.7631C38.2587 44.6564 38.1512 44.5244 38.073 44.375C37.2856 43.0417 36.1641 41.9367 34.8193 41.1691C33.4745 40.4014 31.9527 39.9977 30.4043 39.9977C28.8558 39.9977 27.3341 40.4014 25.9892 41.1691C24.6444 41.9367 23.5229 43.0417 22.7355 44.375C22.6574 44.5244 22.5498 44.6564 22.4193 44.7631C22.2888 44.8699 22.1381 44.9491 21.9762 44.9961C21.8143 45.0431 21.6445 45.0568 21.4772 45.0365C21.3098 45.0161 21.1483 44.9622 21.0024 44.8778C20.8564 44.7934 20.729 44.6804 20.6279 44.5455C20.5267 44.4107 20.4539 44.2567 20.4138 44.093C20.3737 43.9292 20.3671 43.7591 20.3945 43.5927C20.4218 43.4264 20.4826 43.2673 20.573 43.125C21.7849 41.0428 23.6327 39.4042 25.8449 38.45C24.6001 37.4969 23.6852 36.1777 23.229 34.6779C22.7727 33.178 22.7979 31.5728 23.301 30.088C23.8042 28.6031 24.76 27.3133 26.0341 26.3998C27.3082 25.4863 28.8365 24.995 30.4043 24.995C31.972 24.995 33.5004 25.4863 34.7745 26.3998C36.0486 27.3133 37.0044 28.6031 37.5075 30.088C38.0107 31.5728 38.0359 33.178 37.5796 34.6779C37.1233 36.1777 36.2084 37.4969 34.9636 38.45C37.1758 39.4042 39.0236 41.0428 40.2355 43.125ZM30.4043 37.5C31.3932 37.5 32.3599 37.2067 33.1821 36.6573C34.0044 36.1079 34.6452 35.327 35.0237 34.4134C35.4021 33.4998 35.5011 32.4944 35.3082 31.5245C35.1153 30.5546 34.6391 29.6637 33.9398 28.9645C33.2405 28.2652 32.3496 27.789 31.3797 27.5961C30.4098 27.4031 29.4045 27.5022 28.4908 27.8806C27.5772 28.259 26.7963 28.8999 26.2469 29.7221C25.6975 30.5444 25.4043 31.5111 25.4043 32.5C25.4043 33.8261 25.9311 35.0978 26.8687 36.0355C27.8064 36.9732 29.0782 37.5 30.4043 37.5ZM21.6543 28.75C21.6543 28.4185 21.5226 28.1005 21.2881 27.8661C21.0537 27.6317 20.7358 27.5 20.4043 27.5C19.7029 27.4999 19.0156 27.3032 18.4205 26.9321C17.8253 26.561 17.3462 26.0304 17.0374 25.4007C16.7287 24.7709 16.6028 24.0672 16.674 23.3695C16.7451 22.6717 17.0105 22.0079 17.4401 21.4535C17.8696 20.899 18.446 20.4761 19.1038 20.2328C19.7616 19.9895 20.4745 19.9356 21.1614 20.0772C21.8483 20.2187 22.4818 20.5501 22.9899 21.0336C23.4979 21.5171 23.8602 22.1334 24.0355 22.8125C24.1184 23.1337 24.3255 23.4087 24.6112 23.5772C24.8969 23.7457 25.2378 23.7938 25.559 23.7109C25.8801 23.6281 26.1552 23.421 26.3237 23.1353C26.4922 22.8496 26.5403 22.5087 26.4574 22.1875C26.214 21.2458 25.7542 20.3739 25.1146 19.6412C24.475 18.9084 23.6731 18.3351 22.7729 17.9668C21.8727 17.5985 20.899 17.4453 19.9292 17.5196C18.9594 17.5938 18.0203 17.8934 17.1867 18.3944C16.353 18.8954 15.6478 19.5841 15.1271 20.4056C14.6064 21.2272 14.2847 22.1589 14.1875 23.1267C14.0903 24.0944 14.2203 25.0715 14.5671 25.9802C14.914 26.8889 15.4682 27.7041 16.1855 28.3609C14.4875 29.0976 13.0116 30.2653 11.9043 31.7484C11.7051 32.0136 11.6195 32.3471 11.6663 32.6754C11.713 33.0038 11.8883 33.3001 12.1535 33.4992C12.4187 33.6983 12.7522 33.7839 13.0805 33.7372C13.4088 33.6905 13.7051 33.5152 13.9043 33.25C14.6577 32.2373 15.6384 31.4156 16.7673 30.8511C17.8963 30.2866 19.142 29.9951 20.4043 30C20.7358 30 21.0537 29.8683 21.2881 29.6339C21.5226 29.3995 21.6543 29.0815 21.6543 28.75Z" fill="#5D2C02"/>
</svg>
