<svg width="14" height="15" viewBox="0 0 14 15" fill="none" xmlns="http://www.w3.org/2000/svg">
<path fill-rule="evenodd" clip-rule="evenodd" d="M1.75 12.3125V6.625H2.625V12.3125C2.625 12.4285 2.67109 12.5398 2.75314 12.6219C2.83519 12.7039 2.94647 12.75 3.0625 12.75H10.9375C11.0535 12.75 11.1648 12.7039 11.2469 12.6219C11.3289 12.5398 11.375 12.4285 11.375 12.3125V6.625H12.25V12.3125C12.25 12.6606 12.1117 12.9944 11.8656 13.2406C11.6194 13.4867 11.2856 13.625 10.9375 13.625H3.0625C2.7144 13.625 2.38056 13.4867 2.13442 13.2406C1.88828 12.9944 1.75 12.6606 1.75 12.3125V12.3125ZM11.375 2.6875V5.75L9.625 4V2.6875C9.625 2.57147 9.67109 2.46019 9.75314 2.37814C9.83519 2.29609 9.94647 2.25 10.0625 2.25H10.9375C11.0535 2.25 11.1648 2.29609 11.2469 2.37814C11.3289 2.46019 11.375 2.57147 11.375 2.6875Z" fill="white"/>
<path fill-rule="evenodd" clip-rule="evenodd" d="M6.38144 1.81258C6.54553 1.64855 6.76805 1.5564 7.00006 1.5564C7.23208 1.5564 7.4546 1.64855 7.61869 1.81258L13.4348 7.62783C13.517 7.70999 13.5631 7.82141 13.5631 7.93758C13.5631 8.05376 13.517 8.16518 13.4348 8.24733C13.3527 8.32949 13.2412 8.37564 13.1251 8.37564C13.0089 8.37564 12.8975 8.32949 12.8153 8.24733L7.00006 2.43121L1.18481 8.24733C1.10266 8.32949 0.991243 8.37564 0.875064 8.37564C0.758886 8.37564 0.647465 8.32949 0.565314 8.24733C0.483164 8.16518 0.437012 8.05376 0.437012 7.93758C0.437012 7.82141 0.483164 7.70999 0.565314 7.62783L6.38144 1.81258Z" fill="white"/>
</svg>
