<svg width="17" height="16" viewBox="0 0 17 16" fill="none" xmlns="http://www.w3.org/2000/svg">
<path d="M8.49999 1.49999C7.21441 1.49999 5.9577 1.88121 4.88878 2.59544C3.81986 3.30967 2.98674 4.32483 2.49477 5.51255C2.0028 6.70027 1.87408 8.0072 2.12488 9.26808C2.37569 10.529 2.99475 11.6871 3.90379 12.5962C4.81283 13.5052 5.97102 14.1243 7.2319 14.3751C8.49278 14.6259 9.79971 14.4972 10.9874 14.0052C12.1751 13.5132 13.1903 12.6801 13.9045 11.6112C14.6188 10.5423 15 9.28557 15 7.99999C14.9982 6.27664 14.3128 4.6244 13.0942 3.40581C11.8756 2.18722 10.2233 1.50181 8.49999 1.49999ZM8.49999 13.5C7.41219 13.5 6.34882 13.1774 5.44435 12.5731C4.53988 11.9687 3.83493 11.1097 3.41865 10.1048C3.00237 9.09976 2.89345 7.99389 3.10567 6.927C3.31789 5.8601 3.84171 4.88009 4.6109 4.11091C5.38009 3.34172 6.3601 2.81789 7.42699 2.60567C8.49389 2.39345 9.59975 2.50237 10.6047 2.91865C11.6097 3.33494 12.4687 4.03989 13.0731 4.94436C13.6774 5.84883 14 6.9122 14 7.99999C13.9983 9.45818 13.4183 10.8562 12.3872 11.8873C11.3562 12.9183 9.95817 13.4983 8.49999 13.5ZM11 9.24999C11 9.71412 10.8156 10.1592 10.4874 10.4874C10.1592 10.8156 9.71412 11 9.24999 11H8.99999V11.5C8.99999 11.6326 8.94731 11.7598 8.85354 11.8535C8.75977 11.9473 8.6326 12 8.49999 12C8.36738 12 8.2402 11.9473 8.14643 11.8535C8.05267 11.7598 7.99999 11.6326 7.99999 11.5V11H6.99999C6.86738 11 6.7402 10.9473 6.64643 10.8535C6.55267 10.7598 6.49999 10.6326 6.49999 10.5C6.49999 10.3674 6.55267 10.2402 6.64643 10.1464C6.7402 10.0527 6.86738 9.99999 6.99999 9.99999H9.24999C9.4489 9.99999 9.63967 9.92097 9.78032 9.78032C9.92097 9.63967 9.99999 9.4489 9.99999 9.24999C9.99999 9.05108 9.92097 8.86031 9.78032 8.71966C9.63967 8.57901 9.4489 8.49999 9.24999 8.49999H7.74999C7.28586 8.49999 6.84074 8.31562 6.51255 7.98743C6.18436 7.65924 5.99999 7.21412 5.99999 6.74999C5.99999 6.28586 6.18436 5.84074 6.51255 5.51256C6.84074 5.18437 7.28586 4.99999 7.74999 4.99999H7.99999V4.49999C7.99999 4.36738 8.05267 4.24021 8.14643 4.14644C8.2402 4.05267 8.36738 3.99999 8.49999 3.99999C8.6326 3.99999 8.75977 4.05267 8.85354 4.14644C8.94731 4.24021 8.99999 4.36738 8.99999 4.49999V4.99999H9.99999C10.1326 4.99999 10.2598 5.05267 10.3535 5.14644C10.4473 5.24021 10.5 5.36738 10.5 5.49999C10.5 5.6326 10.4473 5.75978 10.3535 5.85355C10.2598 5.94731 10.1326 5.99999 9.99999 5.99999H7.74999C7.55108 5.99999 7.36031 6.07901 7.21966 6.21966C7.07901 6.36031 6.99999 6.55108 6.99999 6.74999C6.99999 6.9489 7.07901 7.13967 7.21966 7.28032C7.36031 7.42097 7.55108 7.49999 7.74999 7.49999H9.24999C9.71412 7.49999 10.1592 7.68437 10.4874 8.01256C10.8156 8.34074 11 8.78586 11 9.24999Z" fill="black"/>
</svg>
