<svg width="16" height="16" viewBox="0 0 16 16" fill="none" xmlns="http://www.w3.org/2000/svg">
<path d="M14.9532 6.08344C14.8926 5.89672 14.7784 5.73195 14.6249 5.60965C14.4713 5.48734 14.2852 5.41291 14.0897 5.39563L10.3761 5.07548L8.92043 1.61389C8.84464 1.43226 8.71681 1.2771 8.55302 1.16797C8.38924 1.05884 8.19682 1.00061 8.00001 1.00061C7.8032 1.00061 7.61078 1.05884 7.447 1.16797C7.28321 1.2771 7.15538 1.43226 7.07959 1.61389L5.6283 5.07548L1.91034 5.3975C1.71402 5.414 1.52695 5.48809 1.37257 5.61049C1.21819 5.73288 1.10339 5.89813 1.04255 6.08551C0.981715 6.27289 0.977557 6.47406 1.0306 6.6638C1.08364 6.85354 1.19152 7.02339 1.34071 7.15206L4.16137 9.61694L3.31599 13.2774C3.27128 13.4689 3.28404 13.6694 3.35266 13.8537C3.42128 14.0381 3.54271 14.1981 3.70178 14.3138C3.86086 14.4295 4.05051 14.4958 4.24702 14.5043C4.44354 14.5128 4.6382 14.4631 4.80667 14.3616L7.99563 12.4232L11.1915 14.3616C11.3599 14.4631 11.5546 14.5128 11.7511 14.5043C11.9476 14.4958 12.1373 14.4295 12.2964 14.3138C12.4554 14.1981 12.5769 14.0381 12.6455 13.8537C12.7141 13.6694 12.7269 13.4689 12.6822 13.2774L11.8374 9.61319L14.6574 7.15206C14.8066 7.02294 14.9143 6.85261 14.9669 6.66247C15.0195 6.47233 15.0148 6.27088 14.9532 6.08344ZM14.0015 6.39609L11.1815 8.85721C11.0442 8.9766 10.9421 9.13115 10.8861 9.30424C10.8302 9.47732 10.8225 9.66239 10.8638 9.83954L11.7111 13.5062L8.51775 11.5678C8.36195 11.473 8.18305 11.4228 8.00063 11.4228C7.81822 11.4228 7.63932 11.473 7.48352 11.5678L4.29456 13.5062L5.1362 9.84204C5.17756 9.6649 5.16984 9.47983 5.11387 9.30674C5.0579 9.13365 4.9558 8.9791 4.81855 8.85971L1.99726 6.39984C1.99703 6.39797 1.99703 6.39608 1.99726 6.39421L5.71396 6.07281C5.89542 6.05682 6.06907 5.99158 6.21618 5.88415C6.36328 5.77671 6.47827 5.63114 6.54872 5.46316L8.00001 2.00595L9.45067 5.46316C9.52113 5.63114 9.63611 5.77671 9.78322 5.88415C9.93032 5.99158 10.104 6.05682 10.2854 6.07281L14.0028 6.39421C14.0028 6.39421 14.0028 6.39796 14.0028 6.39859L14.0015 6.39609Z" fill="#FBBC05"/>
</svg>
