<svg width="16" height="17" viewBox="0 0 16 17" fill="none" xmlns="http://www.w3.org/2000/svg">
<path d="M13.006 2.00827H11.5053V1.50804C11.5053 1.37537 11.4526 1.24814 11.3588 1.15433C11.265 1.06052 11.1377 1.00781 11.0051 1.00781C10.8724 1.00781 10.7452 1.06052 10.6514 1.15433C10.5575 1.24814 10.5048 1.37537 10.5048 1.50804V2.00827H5.50255V1.50804C5.50255 1.37537 5.44985 1.24814 5.35604 1.15433C5.26223 1.06052 5.13499 1.00781 5.00232 1.00781C4.86965 1.00781 4.74242 1.06052 4.64861 1.15433C4.5548 1.24814 4.50209 1.37537 4.50209 1.50804V2.00827H3.0014C2.73607 2.00827 2.4816 2.11368 2.29397 2.3013C2.10635 2.48892 2.00095 2.74339 2.00095 3.00873V13.0133C2.00095 13.2787 2.10635 13.5331 2.29397 13.7207C2.4816 13.9084 2.73607 14.0138 3.0014 14.0138H13.006C13.2713 14.0138 13.5258 13.9084 13.7134 13.7207C13.901 13.5331 14.0065 13.2787 14.0065 13.0133V3.00873C14.0065 2.74339 13.901 2.48892 13.7134 2.3013C13.5258 2.11368 13.2713 2.00827 13.006 2.00827ZM4.50209 3.00873V3.50896C4.50209 3.64163 4.5548 3.76886 4.64861 3.86268C4.74242 3.95649 4.86965 4.00919 5.00232 4.00919C5.13499 4.00919 5.26223 3.95649 5.35604 3.86268C5.44985 3.76886 5.50255 3.64163 5.50255 3.50896V3.00873H10.5048V3.50896C10.5048 3.64163 10.5575 3.76886 10.6514 3.86268C10.7452 3.95649 10.8724 4.00919 11.0051 4.00919C11.1377 4.00919 11.265 3.95649 11.3588 3.86268C11.4526 3.76886 11.5053 3.64163 11.5053 3.50896V3.00873H13.006V5.00965H3.0014V3.00873H4.50209ZM13.006 13.0133H3.0014V6.01011H13.006V13.0133ZM7.00324 7.5108V11.5126C7.00324 11.6453 6.95054 11.7725 6.85673 11.8663C6.76292 11.9602 6.63568 12.0129 6.50301 12.0129C6.37034 12.0129 6.24311 11.9602 6.1493 11.8663C6.05548 11.7725 6.00278 11.6453 6.00278 11.5126V8.31992L5.7264 8.45873C5.60767 8.5181 5.47021 8.52787 5.34426 8.48589C5.21832 8.44391 5.11422 8.35362 5.05485 8.23488C4.99548 8.11614 4.98571 7.97868 5.02769 7.85274C5.06967 7.7268 5.15996 7.62269 5.2787 7.56332L6.27916 7.06309C6.35545 7.02491 6.44024 7.00688 6.52547 7.01071C6.61069 7.01454 6.69352 7.0401 6.76608 7.08497C6.83864 7.12983 6.89852 7.19251 6.94003 7.26704C6.98154 7.34157 7.0033 7.42548 7.00324 7.5108ZM10.7024 9.41479L9.50439 11.0124H10.5048C10.6375 11.0124 10.7648 11.0651 10.8586 11.1589C10.9524 11.2527 11.0051 11.38 11.0051 11.5126C11.0051 11.6453 10.9524 11.7725 10.8586 11.8663C10.7648 11.9602 10.6375 12.0129 10.5048 12.0129H8.50393C8.41103 12.0129 8.31997 11.987 8.24094 11.9382C8.16192 11.8893 8.09806 11.8194 8.05651 11.7363C8.01496 11.6532 7.99738 11.5602 8.00572 11.4677C8.01406 11.3752 8.04801 11.2868 8.10375 11.2125L9.90332 8.81327C9.94425 8.75877 9.97362 8.69649 9.98962 8.63024C10.0056 8.56399 10.0079 8.49517 9.99634 8.428C9.98479 8.36084 9.95963 8.29674 9.9224 8.23965C9.88518 8.18255 9.83669 8.13367 9.7799 8.09599C9.7231 8.05831 9.65921 8.03264 9.59214 8.02054C9.52507 8.00845 9.45623 8.01019 9.38985 8.02565C9.32348 8.04112 9.26096 8.06998 9.20614 8.11048C9.15132 8.15097 9.10536 8.20224 9.07106 8.26114C9.03919 8.31984 8.99587 8.37157 8.94368 8.41326C8.89149 8.45495 8.83148 8.48577 8.76719 8.5039C8.70289 8.52202 8.63562 8.52708 8.56934 8.51879C8.50306 8.51049 8.43911 8.489 8.38126 8.45559C8.32342 8.42218 8.27285 8.37752 8.23255 8.32425C8.19224 8.27098 8.16302 8.21018 8.14659 8.14543C8.13017 8.08068 8.12688 8.0133 8.13692 7.94726C8.14695 7.88121 8.17012 7.81785 8.20504 7.76091C8.37028 7.47496 8.62524 7.2515 8.93038 7.12518C9.23553 6.99886 9.57383 6.97672 9.89283 7.06221C10.2118 7.1477 10.4937 7.33603 10.6948 7.59801C10.8959 7.85999 11.005 8.18099 11.0051 8.51125C11.0061 8.83749 10.8998 9.15501 10.7024 9.41479Z" fill="black"/>
</svg>
