<svg width="17" height="16" viewBox="0 0 17 16" fill="none" xmlns="http://www.w3.org/2000/svg">
<path d="M14.9679 6.08344C14.9073 5.89672 14.7931 5.73195 14.6396 5.60965C14.486 5.48734 14.2999 5.41291 14.1044 5.39563L10.3908 5.07548L8.93511 1.61389C8.85932 1.43226 8.73149 1.2771 8.5677 1.16797C8.40392 1.05884 8.2115 1.00061 8.01469 1.00061C7.81788 1.00061 7.62546 1.05884 7.46168 1.16797C7.29789 1.2771 7.17006 1.43226 7.09427 1.61389L5.64298 5.07548L1.92502 5.3975C1.72871 5.414 1.54163 5.48809 1.38725 5.61049C1.23287 5.73288 1.11807 5.89813 1.05723 6.08551C0.996397 6.27289 0.992239 6.47406 1.04528 6.6638C1.09832 6.85354 1.2062 7.02339 1.35539 7.15206L4.17606 9.61694L3.33067 13.2774C3.28597 13.4689 3.29872 13.6694 3.36734 13.8537C3.43596 14.0381 3.55739 14.1981 3.71647 14.3138C3.87554 14.4295 4.06519 14.4958 4.2617 14.5043C4.45822 14.5128 4.65288 14.4631 4.82135 14.3616L8.01031 12.4232L11.2062 14.3616C11.3746 14.4631 11.5693 14.5128 11.7658 14.5043C11.9623 14.4958 12.152 14.4295 12.311 14.3138C12.4701 14.1981 12.5915 14.0381 12.6602 13.8537C12.7288 13.6694 12.7415 13.4689 12.6968 13.2774L11.8521 9.61319L14.6721 7.15206C14.8213 7.02294 14.929 6.85261 14.9816 6.66247C15.0342 6.47233 15.0294 6.27088 14.9679 6.08344ZM14.0162 6.39609L11.1961 8.85721C11.0589 8.9766 10.9568 9.13115 10.9008 9.30424C10.8449 9.47732 10.8371 9.66239 10.8785 9.83954L11.7258 13.5062L8.53243 11.5678C8.37663 11.473 8.19773 11.4228 8.01532 11.4228C7.8329 11.4228 7.654 11.473 7.4982 11.5678L4.30924 13.5062L5.15088 9.84204C5.19224 9.6649 5.18452 9.47983 5.12855 9.30674C5.07258 9.13365 4.97048 8.9791 4.83323 8.85971L2.01194 6.39984C2.01171 6.39797 2.01171 6.39608 2.01194 6.39421L5.72864 6.07281C5.9101 6.05682 6.08375 5.99158 6.23086 5.88415C6.37796 5.77671 6.49295 5.63114 6.5634 5.46316L8.01469 2.00595L9.46536 5.46316C9.53581 5.63114 9.65079 5.77671 9.7979 5.88415C9.94501 5.99158 10.1187 6.05682 10.3001 6.07281L14.0174 6.39421C14.0174 6.39421 14.0174 6.39796 14.0174 6.39859L14.0162 6.39609Z" fill="#FBBC05"/>
</svg>
