<svg width="16" height="13" viewBox="0 0 16 13" fill="none" xmlns="http://www.w3.org/2000/svg">
<path d="M14.4325 10.7655C13.4806 9.42847 12.0137 8.46972 10.3019 8.01523C11.1486 7.60566 11.8065 6.98157 12.1745 6.2388C12.5425 5.49603 12.6002 4.67565 12.3388 3.90365C12.0774 3.13165 11.5113 2.45072 10.7275 1.96542C9.94365 1.48012 8.98544 1.21729 7.99998 1.21729C7.01452 1.21729 6.05631 1.48012 5.27249 1.96542C4.48868 2.45072 3.9226 3.13165 3.66119 3.90365C3.39978 4.67565 3.4575 5.49603 3.82547 6.2388C4.19344 6.98157 4.85133 7.60566 5.6981 8.01523C3.98623 8.46921 2.51935 9.42796 1.56748 10.7655C1.53257 10.8118 1.50942 10.8632 1.49938 10.9169C1.48935 10.9705 1.49264 11.0252 1.50906 11.0778C1.52547 11.1304 1.55469 11.1798 1.59497 11.223C1.63526 11.2663 1.6858 11.3026 1.74362 11.3297C1.80144 11.3568 1.86536 11.3743 1.93161 11.381C1.99786 11.3878 2.0651 11.3837 2.12937 11.3689C2.19363 11.3542 2.25362 11.3292 2.30578 11.2953C2.35795 11.2615 2.40124 11.2195 2.4331 11.1718C3.6106 9.51835 5.69185 8.53117 7.99998 8.53117C10.3081 8.53117 12.3894 9.51835 13.5669 11.1718C13.5987 11.2195 13.642 11.2615 13.6942 11.2953C13.7463 11.3292 13.8063 11.3542 13.8706 11.3689C13.9349 11.3837 14.0021 11.3878 14.0683 11.381C14.1346 11.3743 14.1985 11.3568 14.2563 11.3297C14.3142 11.3026 14.3647 11.2663 14.405 11.223C14.4453 11.1798 14.4745 11.1304 14.4909 11.0778C14.5073 11.0252 14.5106 10.9705 14.5006 10.9169C14.4905 10.8632 14.4674 10.8118 14.4325 10.7655ZM4.49998 4.87492C4.49998 4.31248 4.70525 3.76267 5.08983 3.29501C5.47442 2.82736 6.02104 2.46287 6.66059 2.24763C7.30013 2.0324 8.00386 1.97608 8.6828 2.08581C9.36173 2.19554 9.98537 2.46638 10.4749 2.86408C10.9643 3.26179 11.2977 3.7685 11.4327 4.32013C11.5678 4.87176 11.4985 5.44355 11.2336 5.96317C10.9686 6.4828 10.52 6.92693 9.94447 7.23941C9.3689 7.55188 8.69221 7.71867 7.99998 7.71867C7.07203 7.71786 6.18236 7.41799 5.5262 6.88486C4.87004 6.35173 4.50097 5.62888 4.49998 4.87492Z" fill="white"/>
</svg>
