<svg width="16" height="16" viewBox="0 0 16 16" fill="none" xmlns="http://www.w3.org/2000/svg">
<path d="M14.95 6.08062C14.8894 5.89399 14.7753 5.72929 14.6218 5.60704C14.4684 5.4848 14.2823 5.4104 14.0869 5.39312L10.375 5.07312L8.92 1.61312C8.84424 1.43157 8.71647 1.27649 8.55275 1.16741C8.38904 1.05833 8.19672 1.00012 8 1.00012C7.80327 1.00012 7.61095 1.05833 7.44724 1.16741C7.28353 1.27649 7.15575 1.43157 7.08 1.61312L5.62937 5.07312L1.91312 5.395C1.71689 5.41149 1.5299 5.48554 1.37559 5.60788C1.22129 5.73022 1.10654 5.8954 1.04573 6.08269C0.98492 6.26999 0.980764 6.47107 1.03378 6.66071C1.0868 6.85036 1.19463 7.02014 1.34375 7.14875L4.16312 9.6125L3.31812 13.2712C3.27344 13.4627 3.28619 13.6631 3.35478 13.8474C3.42336 14.0316 3.54474 14.1916 3.70374 14.3072C3.86274 14.4229 4.0523 14.4891 4.24873 14.4976C4.44515 14.5061 4.63973 14.4565 4.80812 14.355L7.99562 12.4175L11.19 14.355C11.3584 14.4565 11.553 14.5061 11.7494 14.4976C11.9458 14.4891 12.1354 14.4229 12.2944 14.3072C12.4534 14.1916 12.5748 14.0316 12.6433 13.8474C12.7119 13.6631 12.7247 13.4627 12.68 13.2712L11.8356 9.60875L14.6544 7.14875C14.8035 7.01969 14.9111 6.84944 14.9637 6.65939C15.0163 6.46933 15.0115 6.26797 14.95 6.08062ZM13.9987 6.39312L11.18 8.85312C11.0428 8.97246 10.9408 9.12694 10.8848 9.29994C10.8289 9.47295 10.8212 9.65793 10.8625 9.835L11.7094 13.5L8.5175 11.5625C8.36177 11.4677 8.18295 11.4175 8.00062 11.4175C7.81829 11.4175 7.63947 11.4677 7.48375 11.5625L4.29625 13.5L5.1375 9.8375C5.17884 9.66043 5.17112 9.47545 5.11518 9.30244C5.05924 9.12944 4.95718 8.97496 4.82 8.85562L2 6.39687C1.99977 6.39501 1.99977 6.39312 2 6.39125L5.715 6.07C5.89637 6.05401 6.06994 5.98881 6.21698 5.88142C6.36402 5.77403 6.47895 5.62853 6.54937 5.46062L8 2.005L9.45 5.46062C9.52042 5.62853 9.63535 5.77403 9.78239 5.88142C9.92943 5.98881 10.103 6.05401 10.2844 6.07L14 6.39125C14 6.39125 14 6.395 14 6.39562L13.9987 6.39312Z" fill="#FBBC05"/>
</svg>
