<svg width="17" height="16" viewBox="0 0 17 16" fill="none" xmlns="http://www.w3.org/2000/svg">
<g clip-path="url(#clip0_1_1664)">
<path d="M15.3217 9.40432C15.2691 9.44373 15.2093 9.47241 15.1457 9.48872C15.0821 9.50502 15.0158 9.50863 14.9508 9.49934C14.8858 9.49005 14.8232 9.46804 14.7667 9.43457C14.7102 9.4011 14.6608 9.35683 14.6214 9.30427C14.3199 8.899 13.9274 8.57018 13.4756 8.34428C13.0238 8.11838 12.5253 8.00172 12.0202 8.00368C11.9218 8.00367 11.8256 7.97466 11.7437 7.92027C11.6617 7.86589 11.5976 7.78854 11.5593 7.69791C11.5334 7.63637 11.52 7.57025 11.52 7.50345C11.52 7.43665 11.5334 7.37053 11.5593 7.30898C11.5976 7.21835 11.6617 7.14101 11.7437 7.08662C11.8256 7.03224 11.9218 7.00323 12.0202 7.00322C12.3008 7.00319 12.5759 6.92446 12.8141 6.77595C13.0522 6.62745 13.244 6.41513 13.3675 6.16311C13.4911 5.91109 13.5415 5.62947 13.513 5.35025C13.4845 5.07102 13.3783 4.80538 13.2064 4.5835C13.0345 4.36161 12.8038 4.19238 12.5406 4.09502C12.2774 3.99766 11.9921 3.97608 11.7172 4.03272C11.4423 4.08936 11.1888 4.22197 10.9855 4.41546C10.7822 4.60896 10.6372 4.8556 10.567 5.12736C10.5506 5.191 10.5218 5.25078 10.4823 5.30329C10.4427 5.35579 10.3933 5.40001 10.3366 5.43339C10.28 5.46678 10.2174 5.48869 10.1523 5.49787C10.0872 5.50705 10.021 5.50332 9.95735 5.4869C9.89372 5.47047 9.83394 5.44168 9.78143 5.40215C9.72892 5.36263 9.68471 5.31315 9.65132 5.25653C9.61794 5.19992 9.59603 5.13729 9.58685 5.07221C9.57766 5.00713 9.58139 4.94088 9.59781 4.87724C9.69521 4.50039 9.87921 4.15147 10.1352 3.85825C10.3912 3.56502 10.712 3.33558 11.0723 3.18819C11.4325 3.04079 11.8222 2.97951 12.2103 3.00922C12.5984 3.03892 12.9742 3.1588 13.3078 3.3593C13.6414 3.55981 13.9236 3.83541 14.132 4.16418C14.3404 4.49295 14.4691 4.8658 14.508 5.25309C14.5469 5.64037 14.4949 6.03139 14.3561 6.39503C14.2173 6.75867 13.9955 7.0849 13.7085 7.34775C14.3886 7.64226 14.9799 8.10961 15.4236 8.70337C15.463 8.75606 15.4917 8.816 15.5079 8.87977C15.5241 8.94354 15.5275 9.00988 15.5181 9.07499C15.5086 9.1401 15.4864 9.20271 15.4527 9.25922C15.419 9.31573 15.3745 9.36504 15.3217 9.40432ZM11.9526 13.2561C11.9888 13.313 12.0131 13.3767 12.0241 13.4433C12.035 13.5098 12.0324 13.5779 12.0164 13.6435C12.0003 13.709 11.9712 13.7706 11.9307 13.8246C11.8902 13.8785 11.8392 13.9238 11.7808 13.9575C11.7224 13.9913 11.6578 14.0129 11.5908 14.021C11.5238 14.0292 11.4559 14.0237 11.3911 14.0049C11.3263 13.9861 11.266 13.9544 11.2138 13.9116C11.1616 13.8689 11.1185 13.8161 11.0872 13.7563C10.7721 13.2227 10.3233 12.7805 9.78517 12.4734C9.24699 12.1662 8.63802 12.0046 8.01834 12.0046C7.39866 12.0046 6.78969 12.1662 6.25151 12.4734C5.71334 12.7805 5.26455 13.2227 4.94943 13.7563C4.91816 13.8161 4.87512 13.8689 4.8229 13.9116C4.77068 13.9544 4.71036 13.9861 4.64556 14.0049C4.58077 14.0237 4.51284 14.0292 4.44587 14.021C4.3789 14.0129 4.31426 13.9913 4.25585 13.9575C4.19744 13.9238 4.14646 13.8785 4.10599 13.8246C4.06551 13.7706 4.03637 13.709 4.02032 13.6435C4.00427 13.5779 4.00164 13.5098 4.01259 13.4433C4.02354 13.3767 4.04784 13.313 4.08404 13.2561C4.56901 12.4228 5.30847 11.7671 6.19375 11.3852C5.69561 11.0038 5.3295 10.4759 5.1469 9.87568C4.9643 9.27545 4.97438 8.63309 5.17573 8.03888C5.37709 7.44468 5.75958 6.92852 6.26946 6.56294C6.77933 6.19736 7.39095 6.00076 8.01834 6.00076C8.64573 6.00076 9.25735 6.19736 9.76723 6.56294C10.2771 6.92852 10.6596 7.44468 10.8609 8.03888C11.0623 8.63309 11.0724 9.27545 10.8898 9.87568C10.7072 10.4759 10.3411 11.0038 9.84293 11.3852C10.7282 11.7671 11.4677 12.4228 11.9526 13.2561ZM8.01834 11.0051C8.41408 11.0051 8.80094 10.8877 9.12999 10.6678C9.45904 10.448 9.7155 10.1355 9.86695 9.76985C10.0184 9.40423 10.058 9.00192 9.98081 8.61378C9.90361 8.22564 9.71304 7.86911 9.4332 7.58927C9.15337 7.30944 8.79684 7.11887 8.4087 7.04167C8.02056 6.96446 7.61824 7.00408 7.25262 7.15553C6.887 7.30697 6.5745 7.56344 6.35464 7.89249C6.13477 8.22154 6.01742 8.60839 6.01742 9.00414C6.01742 9.53481 6.22823 10.0438 6.60348 10.419C6.97872 10.7942 7.48766 11.0051 8.01834 11.0051ZM4.51673 7.50345C4.51673 7.37078 4.46403 7.24354 4.37022 7.14973C4.27641 7.05592 4.14917 7.00322 4.01651 7.00322C3.73583 7.00319 3.46079 6.92446 3.22262 6.77595C2.98445 6.62745 2.7927 6.41513 2.66916 6.16311C2.54561 5.91109 2.49521 5.62947 2.52369 5.35025C2.55218 5.07102 2.65839 4.80538 2.83028 4.5835C3.00216 4.36161 3.23283 4.19238 3.49608 4.09502C3.75933 3.99766 4.0446 3.97608 4.3195 4.03272C4.5944 4.08936 4.8479 4.22197 5.05121 4.41546C5.25453 4.60896 5.3995 4.8556 5.46967 5.12736C5.50284 5.25588 5.5857 5.36596 5.70004 5.43339C5.81437 5.50082 5.9508 5.52007 6.07933 5.4869C6.20785 5.45373 6.31793 5.37087 6.38536 5.25653C6.45279 5.1422 6.47203 5.00577 6.43887 4.87724C6.34147 4.50039 6.15747 4.15147 5.9015 3.85825C5.64553 3.56502 5.32466 3.33558 4.96441 3.18819C4.60416 3.04079 4.21449 2.97951 3.82639 3.00922C3.43829 3.03892 3.06249 3.1588 2.72887 3.3593C2.39525 3.55981 2.11304 3.83541 1.90467 4.16418C1.69631 4.49295 1.56756 4.8658 1.52866 5.25309C1.48975 5.64037 1.54178 6.03139 1.68059 6.39503C1.81939 6.75867 2.04116 7.0849 2.32823 7.34775C1.64872 7.64254 1.05809 8.10987 0.614945 8.70337C0.535261 8.80951 0.501002 8.94295 0.519706 9.07435C0.538409 9.20574 0.608543 9.32432 0.714678 9.40401C0.820814 9.48369 0.954256 9.51795 1.08565 9.49925C1.21705 9.48054 1.33563 9.41041 1.41531 9.30427C1.71682 8.899 2.10926 8.57018 2.56106 8.34428C3.01286 8.11838 3.51138 8.00172 4.01651 8.00368C4.14917 8.00368 4.27641 7.95097 4.37022 7.85716C4.46403 7.76335 4.51673 7.63612 4.51673 7.50345Z" fill="black"/>
</g>
<defs>
<clipPath id="clip0_1_1664">
<rect width="16.0073" height="16.0073" fill="white" transform="translate(0.014679)"/>
</clipPath>
</defs>
</svg>
