<svg width="16" height="16" viewBox="0 0 16 16" fill="none" xmlns="http://www.w3.org/2000/svg">
<path d="M10.5048 4.50208V12.5057C10.5048 12.6384 10.4521 12.7657 10.3583 12.8595C10.2645 12.9533 10.1373 13.006 10.0046 13.006C9.87192 13.006 9.74468 12.9533 9.65087 12.8595C9.55706 12.7657 9.50436 12.6384 9.50436 12.5057V4.50208C9.50436 4.36941 9.55706 4.24217 9.65087 4.14836C9.74468 4.05455 9.87192 4.00185 10.0046 4.00185C10.1373 4.00185 10.2645 4.05455 10.3583 4.14836C10.4521 4.24217 10.5048 4.36941 10.5048 4.50208ZM12.5057 1.5007C12.3731 1.5007 12.2458 1.5534 12.152 1.64722C12.0582 1.74103 12.0055 1.86826 12.0055 2.00093V12.5057C12.0055 12.6384 12.0582 12.7657 12.152 12.8595C12.2458 12.9533 12.3731 13.006 12.5057 13.006C12.6384 13.006 12.7656 12.9533 12.8594 12.8595C12.9533 12.7657 13.006 12.6384 13.006 12.5057V2.00093C13.006 1.86826 12.9533 1.74103 12.8594 1.64722C12.7656 1.5534 12.6384 1.5007 12.5057 1.5007ZM7.50344 6.503C7.37077 6.503 7.24354 6.5557 7.14972 6.64951C7.05591 6.74332 7.00321 6.87056 7.00321 7.00323V12.5057C7.00321 12.6384 7.05591 12.7657 7.14972 12.8595C7.24354 12.9533 7.37077 13.006 7.50344 13.006C7.63611 13.006 7.76334 12.9533 7.85715 12.8595C7.95097 12.7657 8.00367 12.6384 8.00367 12.5057V7.00323C8.00367 6.87056 7.95097 6.74332 7.85715 6.64951C7.76334 6.5557 7.63611 6.503 7.50344 6.503ZM5.00229 9.00414C4.86962 9.00414 4.74239 9.05685 4.64858 9.15066C4.55477 9.24447 4.50206 9.3717 4.50206 9.50437V12.5057C4.50206 12.6384 4.55477 12.7657 4.64858 12.8595C4.74239 12.9533 4.86962 13.006 5.00229 13.006C5.13496 13.006 5.2622 12.9533 5.35601 12.8595C5.44982 12.7657 5.50252 12.6384 5.50252 12.5057V9.50437C5.50252 9.3717 5.44982 9.24447 5.35601 9.15066C5.2622 9.05685 5.13496 9.00414 5.00229 9.00414ZM2.50114 11.5053C2.36848 11.5053 2.24124 11.558 2.14743 11.6518C2.05362 11.7456 2.00092 11.8729 2.00092 12.0055V12.5057C2.00092 12.6384 2.05362 12.7657 2.14743 12.8595C2.24124 12.9533 2.36848 13.006 2.50114 13.006C2.63381 13.006 2.76105 12.9533 2.85486 12.8595C2.94867 12.7657 3.00137 12.6384 3.00137 12.5057V12.0055C3.00137 11.8729 2.94867 11.7456 2.85486 11.6518C2.76105 11.558 2.63381 11.5053 2.50114 11.5053Z" fill="black"/>
</svg>
