<svg width="16" height="17" viewBox="0 0 16 17" fill="none" xmlns="http://www.w3.org/2000/svg">
<path d="M14.4391 13.2634C13.4868 11.6171 12.0192 10.4365 10.3066 9.87689C11.1537 9.37257 11.8119 8.6041 12.1801 7.68951C12.5482 6.77491 12.6059 5.76475 12.3444 4.81416C12.0829 3.86357 11.5166 3.02512 10.7324 2.42755C9.9482 1.82998 8.98955 1.50635 8.00364 1.50635C7.01773 1.50635 6.05908 1.82998 5.27491 2.42755C4.49073 3.02512 3.92439 3.86357 3.66286 4.81416C3.40134 5.76475 3.45908 6.77491 3.82722 7.68951C4.19536 8.6041 4.85355 9.37257 5.70071 9.87689C3.98805 10.4359 2.5205 11.6164 1.56819 13.2634C1.53327 13.3204 1.5101 13.3837 1.50007 13.4498C1.49003 13.5158 1.49332 13.5832 1.50974 13.648C1.52617 13.7127 1.55539 13.7735 1.5957 13.8268C1.636 13.8801 1.68657 13.9247 1.74441 13.9581C1.80226 13.9915 1.86621 14.013 1.93249 14.0213C1.99877 14.0296 2.06604 14.0246 2.13034 14.0064C2.19463 13.9883 2.25464 13.9575 2.30683 13.9158C2.35903 13.8741 2.40234 13.8224 2.43421 13.7637C3.61225 11.7277 5.69446 10.5122 8.00364 10.5122C10.3128 10.5122 12.395 11.7277 13.5731 13.7637C13.6049 13.8224 13.6483 13.8741 13.7005 13.9158C13.7526 13.9575 13.8127 13.9883 13.8769 14.0064C13.9412 14.0246 14.0085 14.0296 14.0748 14.0213C14.1411 14.013 14.205 13.9915 14.2629 13.9581C14.3207 13.9247 14.3713 13.8801 14.4116 13.8268C14.4519 13.7735 14.4811 13.7127 14.4975 13.648C14.514 13.5832 14.5173 13.5158 14.5072 13.4498C14.4972 13.3837 14.474 13.3204 14.4391 13.2634ZM4.50204 6.01011C4.50204 5.31756 4.7074 4.64056 5.09216 4.06473C5.47693 3.48889 6.0238 3.04008 6.66364 2.77505C7.30347 2.51002 8.00753 2.44068 8.68677 2.57579C9.36602 2.7109 9.98994 3.0444 10.4797 3.5341C10.9694 4.02381 11.3029 4.64774 11.438 5.32698C11.5731 6.00623 11.5037 6.71029 11.2387 7.35012C10.9737 7.98995 10.5249 8.53683 9.94903 8.92159C9.37319 9.30635 8.6962 9.51172 8.00364 9.51172C7.07526 9.51073 6.18519 9.14149 5.52873 8.48503C4.87227 7.82856 4.50303 6.93849 4.50204 6.01011Z" fill="black"/>
</svg>
