<svg width="17" height="16" viewBox="0 0 17 16" fill="none" xmlns="http://www.w3.org/2000/svg">
<path d="M14.9325 13.25C13.9806 11.6044 12.5137 10.4244 10.8019 9.865C11.6486 9.36091 12.3065 8.5928 12.6745 7.67862C13.0425 6.76444 13.1002 5.75475 12.8388 4.8046C12.5774 3.85444 12.0113 3.01637 11.2275 2.41908C10.4437 1.82178 9.48544 1.4983 8.49999 1.4983C7.51453 1.4983 6.55632 1.82178 5.7725 2.41908C4.98869 3.01637 4.42261 3.85444 4.1612 4.8046C3.89979 5.75475 3.9575 6.76444 4.32548 7.67862C4.69345 8.5928 5.35134 9.36091 6.19811 9.865C4.48624 10.4237 3.01936 11.6038 2.06749 13.25C2.03258 13.3069 2.00943 13.3703 1.99939 13.4363C1.98936 13.5023 1.99265 13.5696 2.00906 13.6343C2.02548 13.6991 2.05469 13.7598 2.09498 13.8131C2.13527 13.8663 2.18581 13.911 2.24363 13.9444C2.30144 13.9778 2.36536 13.9992 2.43162 14.0075C2.49787 14.0158 2.56511 14.0108 2.62937 13.9926C2.69364 13.9745 2.75362 13.9437 2.80579 13.9021C2.85796 13.8604 2.90125 13.8087 2.93311 13.75C4.11061 11.715 6.19186 10.5 8.49999 10.5C10.8081 10.5 12.8894 11.715 14.0669 13.75C14.0987 13.8087 14.142 13.8604 14.1942 13.9021C14.2463 13.9437 14.3063 13.9745 14.3706 13.9926C14.4349 14.0108 14.5021 14.0158 14.5684 14.0075C14.6346 13.9992 14.6985 13.9778 14.7563 13.9444C14.8142 13.911 14.8647 13.8663 14.905 13.8131C14.9453 13.7598 14.9745 13.6991 14.9909 13.6343C15.0073 13.5696 15.0106 13.5023 15.0006 13.4363C14.9905 13.3703 14.9674 13.3069 14.9325 13.25ZM4.99999 6C4.99999 5.30776 5.20526 4.63108 5.58984 4.0555C5.97443 3.47993 6.52105 3.03133 7.16059 2.76642C7.80014 2.50151 8.50387 2.4322 9.1828 2.56725C9.86174 2.7023 10.4854 3.03564 10.9749 3.52513C11.4643 4.01461 11.7977 4.63825 11.9327 5.31718C12.0678 5.99612 11.9985 6.69985 11.7336 7.33939C11.4687 7.97893 11.0201 8.52556 10.4445 8.91014C9.86891 9.29473 9.19222 9.5 8.49999 9.5C7.57203 9.49901 6.68237 9.12994 6.02621 8.47378C5.37005 7.81762 5.00098 6.92795 4.99999 6Z" fill="black"/>
</svg>
