<svg width="17" height="16" viewBox="0 0 17 16" fill="none" xmlns="http://www.w3.org/2000/svg">
<path d="M8.011 2.50116C6.82376 2.50116 5.66319 2.85322 4.67604 3.51281C3.6889 4.1724 2.91951 5.1099 2.46517 6.20676C2.01084 7.30362 1.89197 8.51057 2.12358 9.67499C2.3552 10.8394 2.92691 11.909 3.76641 12.7485C4.60591 13.588 5.6755 14.1597 6.83992 14.3913C8.00434 14.6229 9.21129 14.5041 10.3081 14.0497C11.405 13.5954 12.3425 12.826 13.0021 11.8389C13.6617 10.8517 14.0137 9.69115 14.0137 8.50391C14.0119 6.91244 13.3789 5.38668 12.2536 4.26134C11.1282 3.136 9.60247 2.50298 8.011 2.50116ZM8.011 13.5062C7.02164 13.5062 6.05449 13.2128 5.23187 12.6632C4.40925 12.1135 3.76809 11.3323 3.38948 10.4182C3.01087 9.50416 2.9118 8.49837 3.10482 7.52802C3.29783 6.55767 3.77426 5.66634 4.47384 4.96676C5.17342 4.26718 6.06475 3.79075 7.0351 3.59774C8.00545 3.40472 9.01124 3.50379 9.92529 3.8824C10.8393 4.26101 11.6206 4.90217 12.1703 5.72479C12.7199 6.54741 13.0133 7.51455 13.0133 8.50391C13.0118 9.83015 12.4843 11.1016 11.5465 12.0394C10.6087 12.9772 9.33723 13.5047 8.011 13.5062ZM10.8661 5.64886C10.9126 5.69531 10.9495 5.75048 10.9746 5.81121C10.9998 5.87194 11.0128 5.93703 11.0128 6.00277C11.0128 6.06851 10.9998 6.1336 10.9746 6.19433C10.9495 6.25505 10.9126 6.31022 10.8661 6.35668L8.36491 8.85783C8.31843 8.9043 8.26326 8.94117 8.20253 8.96632C8.14181 8.99148 8.07672 9.00442 8.011 9.00442C7.94527 9.00442 7.88018 8.99148 7.81946 8.96632C7.75874 8.94117 7.70356 8.9043 7.65708 8.85783C7.61061 8.81135 7.57374 8.75618 7.54859 8.69545C7.52343 8.63473 7.51049 8.56964 7.51049 8.50391C7.51049 8.43819 7.52343 8.3731 7.54859 8.31238C7.57374 8.25165 7.61061 8.19648 7.65708 8.15L10.1582 5.64886C10.2047 5.60235 10.2599 5.56545 10.3206 5.54028C10.3813 5.5151 10.4464 5.50214 10.5121 5.50214C10.5779 5.50214 10.643 5.5151 10.7037 5.54028C10.7644 5.56545 10.8196 5.60235 10.8661 5.64886ZM6.01008 1.00047C6.01008 0.867804 6.06278 0.740569 6.15659 0.646758C6.2504 0.552947 6.37764 0.500244 6.51031 0.500244H9.51168C9.64435 0.500244 9.77159 0.552947 9.8654 0.646758C9.95921 0.740569 10.0119 0.867804 10.0119 1.00047C10.0119 1.13314 9.95921 1.26038 9.8654 1.35419C9.77159 1.448 9.64435 1.5007 9.51168 1.5007H6.51031C6.37764 1.5007 6.2504 1.448 6.15659 1.35419C6.06278 1.26038 6.01008 1.13314 6.01008 1.00047Z" fill="black"/>
</svg>
