<svg width="17" height="16" viewBox="0 0 17 16" fill="none" xmlns="http://www.w3.org/2000/svg">
<path d="M15.9459 6.08344C15.8853 5.89672 15.7711 5.73195 15.6176 5.60965C15.464 5.48734 15.2779 5.41291 15.0823 5.39563L11.3688 5.07548L9.91309 1.61389C9.8373 1.43226 9.70947 1.2771 9.54568 1.16797C9.3819 1.05884 9.18948 1.00061 8.99267 1.00061C8.79586 1.00061 8.60344 1.05884 8.43966 1.16797C8.27587 1.2771 8.14804 1.43226 8.07225 1.61389L6.62096 5.07548L2.903 5.3975C2.70669 5.414 2.51961 5.48809 2.36523 5.61049C2.21085 5.73288 2.09605 5.89813 2.03521 6.08551C1.97438 6.27289 1.97022 6.47406 2.02326 6.6638C2.0763 6.85354 2.18418 7.02339 2.33337 7.15206L5.15404 9.61694L4.30865 13.2774C4.26395 13.4689 4.2767 13.6694 4.34532 13.8537C4.41394 14.0381 4.53537 14.1981 4.69445 14.3138C4.85352 14.4295 5.04317 14.4958 5.23968 14.5043C5.4362 14.5128 5.63086 14.4631 5.79933 14.3616L8.98829 12.4232L12.1841 14.3616C12.3526 14.4631 12.5473 14.5128 12.7438 14.5043C12.9403 14.4958 13.1299 14.4295 13.289 14.3138C13.4481 14.1981 13.5695 14.0381 13.6381 13.8537C13.7068 13.6694 13.7195 13.4689 13.6748 13.2774L12.8301 9.61319L15.6501 7.15206C15.7993 7.02294 15.9069 6.85261 15.9596 6.66247C16.0122 6.47233 16.0074 6.27088 15.9459 6.08344ZM14.9942 6.39609L12.1741 8.85721C12.0369 8.9766 11.9348 9.13115 11.8788 9.30424C11.8228 9.47732 11.8151 9.66239 11.8565 9.83954L12.7037 13.5062L9.51041 11.5678C9.35461 11.473 9.17571 11.4228 8.9933 11.4228C8.81088 11.4228 8.63198 11.473 8.47618 11.5678L5.28722 13.5062L6.12886 9.84204C6.17022 9.6649 6.1625 9.47983 6.10653 9.30674C6.05056 9.13365 5.94846 8.9791 5.81121 8.85971L2.98992 6.39984C2.98969 6.39797 2.98969 6.39608 2.98992 6.39421L6.70662 6.07281C6.88808 6.05682 7.06173 5.99158 7.20884 5.88415C7.35594 5.77671 7.47093 5.63114 7.54138 5.46316L8.99267 2.00595L10.4433 5.46316C10.5138 5.63114 10.6288 5.77671 10.7759 5.88415C10.923 5.99158 11.0966 6.05682 11.2781 6.07281L14.9954 6.39421C14.9954 6.39421 14.9954 6.39796 14.9954 6.39859L14.9942 6.39609Z" fill="#FBBC05"/>
</svg>
