<svg width="46" height="46" viewBox="0 0 46 46" fill="none" xmlns="http://www.w3.org/2000/svg">
<path d="M36.9545 26.892L24.017 39.8295C23.8835 39.9632 23.725 40.0692 23.5505 40.1416C23.376 40.2139 23.1889 40.2511 23 40.2511C22.8111 40.2511 22.624 40.2139 22.4495 40.1416C22.275 40.0692 22.1165 39.9632 21.983 39.8295L9.04547 26.892C8.77573 26.6223 8.6242 26.2565 8.6242 25.875C8.6242 25.4935 8.77573 25.1277 9.04547 24.858C9.3152 24.5882 9.68104 24.4367 10.0625 24.4367C10.444 24.4367 10.8098 24.5882 11.0795 24.858L21.5625 35.3427V7.1875C21.5625 6.80625 21.7139 6.44062 21.9835 6.17103C22.2531 5.90145 22.6187 5.75 23 5.75C23.3812 5.75 23.7469 5.90145 24.0165 6.17103C24.286 6.44062 24.4375 6.80625 24.4375 7.1875V35.3427L34.9205 24.858C35.1902 24.5882 35.556 24.4367 35.9375 24.4367C36.319 24.4367 36.6848 24.5882 36.9545 24.858C37.2243 25.1277 37.3758 25.4935 37.3758 25.875C37.3758 26.2565 37.2243 26.6223 36.9545 26.892Z" fill="#FF7917"/>
</svg>
