<svg width="17" height="16" viewBox="0 0 17 16" fill="none" xmlns="http://www.w3.org/2000/svg">
<path d="M14.9605 6.08344C14.9 5.89672 14.7858 5.73195 14.6322 5.60965C14.4787 5.48734 14.2926 5.41291 14.097 5.39563L10.3834 5.07548L8.92777 1.61389C8.85199 1.43226 8.72415 1.2771 8.56037 1.16797C8.39658 1.05884 8.20417 1.00061 8.00735 1.00061C7.81054 1.00061 7.61813 1.05884 7.45434 1.16797C7.29055 1.2771 7.16272 1.43226 7.08693 1.61389L5.63564 5.07548L1.91768 5.3975C1.72137 5.414 1.53429 5.48809 1.37991 5.61049C1.22553 5.73288 1.11073 5.89813 1.04989 6.08551C0.989059 6.27289 0.9849 6.47406 1.03794 6.6638C1.09098 6.85354 1.19886 7.02339 1.34805 7.15206L4.16872 9.61694L3.32333 13.2774C3.27863 13.4689 3.29138 13.6694 3.36 13.8537C3.42862 14.0381 3.55006 14.1981 3.70913 14.3138C3.8682 14.4295 4.05785 14.4958 4.25436 14.5043C4.45088 14.5128 4.64554 14.4631 4.81401 14.3616L8.00298 12.4232L11.1988 14.3616C11.3673 14.4631 11.5619 14.5128 11.7585 14.5043C11.955 14.4958 12.1446 14.4295 12.3037 14.3138C12.4628 14.1981 12.5842 14.0381 12.6528 13.8537C12.7214 13.6694 12.7342 13.4689 12.6895 13.2774L11.8447 9.61319L14.6648 7.15206C14.8139 7.02294 14.9216 6.85261 14.9742 6.66247C15.0269 6.47233 15.0221 6.27088 14.9605 6.08344ZM14.0089 6.39609L11.1888 8.85721C11.0516 8.9766 10.9495 9.13115 10.8935 9.30424C10.8375 9.47732 10.8298 9.66239 10.8712 9.83954L11.7184 13.5062L8.52509 11.5678C8.36929 11.473 8.19039 11.4228 8.00798 11.4228C7.82556 11.4228 7.64666 11.473 7.49087 11.5678L4.3019 13.5062L5.14354 9.84204C5.1849 9.6649 5.17718 9.47983 5.12121 9.30674C5.06525 9.13365 4.96314 8.9791 4.82589 8.85971L2.0046 6.39984C2.00437 6.39797 2.00437 6.39608 2.0046 6.39421L5.7213 6.07281C5.90276 6.05682 6.07641 5.99158 6.22352 5.88415C6.37063 5.77671 6.48561 5.63114 6.55606 5.46316L8.00735 2.00595L9.45802 5.46316C9.52847 5.63114 9.64345 5.77671 9.79056 5.88415C9.93767 5.99158 10.1113 6.05682 10.2928 6.07281L14.0101 6.39421C14.0101 6.39421 14.0101 6.39796 14.0101 6.39859L14.0089 6.39609Z" fill="#FBBC05"/>
</svg>
