<svg width="17" height="16" viewBox="0 0 17 16" fill="none" xmlns="http://www.w3.org/2000/svg">
<path d="M15.9385 6.08344C15.8779 5.89672 15.7638 5.73195 15.6102 5.60965C15.4567 5.48734 15.2705 5.41291 15.075 5.39563L11.3614 5.07548L9.90575 1.61389C9.82996 1.43226 9.70212 1.2771 9.53834 1.16797C9.37455 1.05884 9.18214 1.00061 8.98533 1.00061C8.78851 1.00061 8.5961 1.05884 8.43231 1.16797C8.26853 1.2771 8.14069 1.43226 8.0649 1.61389L6.61361 5.07548L2.89566 5.3975C2.69934 5.414 2.51226 5.48809 2.35788 5.61049C2.20351 5.73288 2.0887 5.89813 2.02787 6.08551C1.96703 6.27289 1.96287 6.47406 2.01591 6.6638C2.06895 6.85354 2.17683 7.02339 2.32602 7.15206L5.14669 9.61694L4.3013 13.2774C4.2566 13.4689 4.26936 13.6694 4.33797 13.8537C4.40659 14.0381 4.52803 14.1981 4.6871 14.3138C4.84617 14.4295 5.03582 14.4958 5.23234 14.5043C5.42885 14.5128 5.62352 14.4631 5.79199 14.3616L8.98095 12.4232L12.1768 14.3616C12.3453 14.4631 12.5399 14.5128 12.7364 14.5043C12.933 14.4958 13.1226 14.4295 13.2817 14.3138C13.4407 14.1981 13.5622 14.0381 13.6308 13.8537C13.6994 13.6694 13.7122 13.4689 13.6675 13.2774L12.8227 9.61319L15.6428 7.15206C15.7919 7.02294 15.8996 6.85261 15.9522 6.66247C16.0048 6.47233 16.0001 6.27088 15.9385 6.08344ZM14.9868 6.39609L12.1668 8.85721C12.0295 8.9766 11.9274 9.13115 11.8715 9.30424C11.8155 9.47732 11.8078 9.66239 11.8491 9.83954L12.6964 13.5062L9.50306 11.5678C9.34726 11.473 9.16837 11.4228 8.98595 11.4228C8.80354 11.4228 8.62464 11.473 8.46884 11.5678L5.27988 13.5062L6.12151 9.84204C6.16287 9.6649 6.15516 9.47983 6.09919 9.30674C6.04322 9.13365 5.94112 8.9791 5.80387 8.85971L2.98257 6.39984C2.98234 6.39797 2.98234 6.39608 2.98257 6.39421L6.69928 6.07281C6.88074 6.05682 7.05439 5.99158 7.20149 5.88415C7.3486 5.77671 7.46358 5.63114 7.53404 5.46316L8.98533 2.00595L10.436 5.46316C10.5064 5.63114 10.6214 5.77671 10.7685 5.88415C10.9156 5.99158 11.0893 6.05682 11.2707 6.07281L14.9881 6.39421C14.9881 6.39421 14.9881 6.39796 14.9881 6.39859L14.9868 6.39609Z" fill="#FBBC05"/>
</svg>
