<svg width="17" height="16" viewBox="0 0 17 16" fill="none" xmlns="http://www.w3.org/2000/svg">
<path d="M13.8538 6.35375L8.85375 11.3538C8.80732 11.4002 8.75217 11.4371 8.69147 11.4623C8.63077 11.4874 8.56571 11.5004 8.5 11.5004C8.4343 11.5004 8.36923 11.4874 8.30853 11.4623C8.24783 11.4371 8.19269 11.4002 8.14625 11.3538L3.14625 6.35375C3.05243 6.25993 2.99973 6.13269 2.99973 6C2.99973 5.86732 3.05243 5.74007 3.14625 5.64625C3.24007 5.55243 3.36732 5.49973 3.5 5.49973C3.63269 5.49973 3.75993 5.55243 3.85375 5.64625L8.5 10.2931L13.1463 5.64625C13.1927 5.5998 13.2479 5.56295 13.3086 5.53781C13.3693 5.51267 13.4343 5.49973 13.5 5.49973C13.5657 5.49973 13.6308 5.51267 13.6915 5.53781C13.7521 5.56295 13.8073 5.5998 13.8538 5.64625C13.9002 5.69271 13.9371 5.74786 13.9622 5.80856C13.9873 5.86925 14.0003 5.93431 14.0003 6C14.0003 6.0657 13.9873 6.13076 13.9622 6.19145C13.9371 6.25215 13.9002 6.3073 13.8538 6.35375Z" fill="black"/>
</svg>
