<svg width="16" height="16" viewBox="0 0 16 16" fill="none" xmlns="http://www.w3.org/2000/svg">
<path d="M10.6074 8.39953L13.4068 7.18272C13.5912 7.10095 13.7466 6.96534 13.8525 6.79369C13.9585 6.62204 14.0101 6.42237 14.0006 6.22087C13.991 6.01937 13.9208 5.82546 13.7991 5.66458C13.6774 5.5037 13.5099 5.38337 13.3186 5.31937L3.30901 2.051C3.13396 1.99489 2.94682 1.9881 2.76816 2.03137C2.5895 2.07464 2.42621 2.1663 2.29622 2.29629C2.16624 2.42627 2.07458 2.58956 2.03131 2.76822C1.98804 2.94689 1.99483 3.13402 2.05094 3.30907L5.31931 13.3187C5.38099 13.5118 5.50047 13.6813 5.66162 13.8043C5.82277 13.9273 6.0178 13.9979 6.22035 14.0065H6.26975C6.46396 14.0071 6.65407 13.9506 6.8164 13.844C6.97873 13.7373 7.10611 13.5853 7.18266 13.4068L8.39947 10.6074L11.5053 13.7132C11.5982 13.8061 11.7085 13.8799 11.8299 13.9302C11.9513 13.9804 12.0814 14.0063 12.2128 14.0063C12.3442 14.0063 12.4743 13.9804 12.5957 13.9302C12.7171 13.8799 12.8274 13.8061 12.9203 13.7132L13.7132 12.9204C13.8061 12.8275 13.8798 12.7172 13.9301 12.5958C13.9804 12.4744 14.0063 12.3442 14.0063 12.2128C14.0063 12.0814 13.9804 11.9513 13.9301 11.8299C13.8798 11.7085 13.8061 11.5982 13.7132 11.5053L10.6074 8.39953ZM12.2125 13.006L9.1073 9.90022C8.99198 9.78476 8.85018 9.69925 8.69424 9.65116C8.53831 9.60307 8.37297 9.59385 8.21266 9.62432C8.05234 9.65477 7.90191 9.72399 7.77448 9.82592C7.64705 9.92785 7.54648 10.0594 7.48155 10.2091L6.26724 13.001L3.00137 3.00143L12.9978 6.26605L10.2066 7.47974C10.0568 7.54467 9.92529 7.64523 9.82336 7.77266C9.72143 7.9001 9.65221 8.05053 9.62175 8.21084C9.59129 8.37116 9.60051 8.53649 9.6486 8.69243C9.69669 8.84836 9.7822 8.99017 9.89766 9.10548L13.006 12.2125L12.2125 13.006ZM5.50252 1.50074V1.00051C5.50252 0.867846 5.55522 0.74061 5.64903 0.646799C5.74284 0.552988 5.87008 0.500285 6.00275 0.500285C6.13542 0.500285 6.26265 0.552988 6.35646 0.646799C6.45027 0.74061 6.50298 0.867846 6.50298 1.00051V1.50074C6.50298 1.63341 6.45027 1.76065 6.35646 1.85446C6.26265 1.94827 6.13542 2.00097 6.00275 2.00097C5.87008 2.00097 5.74284 1.94827 5.64903 1.85446C5.55522 1.76065 5.50252 1.63341 5.50252 1.50074ZM0.500224 6.00281C0.500224 5.87014 0.552927 5.7429 0.646738 5.64909C0.740549 5.55528 0.867785 5.50258 1.00045 5.50258H1.50068C1.63335 5.50258 1.76059 5.55528 1.8544 5.64909C1.94821 5.7429 2.00091 5.87014 2.00091 6.00281C2.00091 6.13548 1.94821 6.26271 1.8544 6.35652C1.76059 6.45034 1.63335 6.50304 1.50068 6.50304H1.00045C0.867785 6.50304 0.740549 6.45034 0.646738 6.35652C0.552927 6.26271 0.500224 6.13548 0.500224 6.00281ZM7.55659 1.77712L8.05682 0.776662C8.11619 0.658006 8.22026 0.567794 8.34614 0.525873C8.47202 0.483951 8.60941 0.493753 8.72806 0.553122C8.84672 0.612491 8.93693 0.716565 8.97885 0.842448C9.02077 0.968331 9.01097 1.10571 8.9516 1.22437L8.45137 2.22483C8.42198 2.28358 8.38129 2.33597 8.33165 2.379C8.28201 2.42203 8.22438 2.45486 8.16205 2.47562C8.09972 2.49637 8.03391 2.50465 7.96838 2.49998C7.90285 2.4953 7.83888 2.47776 7.78013 2.44837C7.72137 2.41897 7.66899 2.37829 7.62596 2.32865C7.58293 2.279 7.55009 2.22137 7.52934 2.15904C7.50858 2.09671 7.5003 2.0309 7.50498 1.96537C7.50965 1.89984 7.52719 1.83587 7.55659 1.77712ZM2.44862 7.77987C2.47806 7.83866 2.49562 7.90267 2.5003 7.96825C2.50498 8.03383 2.49669 8.09969 2.4759 8.16206C2.45511 8.22443 2.42223 8.28209 2.37914 8.33174C2.33605 8.38139 2.28359 8.42207 2.22477 8.45143L1.22431 8.95166C1.10565 9.01103 0.96827 9.02083 0.842387 8.97891C0.716504 8.93699 0.61243 8.84678 0.553061 8.72812C0.493692 8.60947 0.48389 8.47208 0.525812 8.3462C0.567733 8.22032 0.657945 8.11625 0.776601 8.05688L1.77706 7.55665C1.83581 7.52718 1.89979 7.50959 1.96534 7.50486C2.03089 7.50014 2.09673 7.50837 2.15909 7.5291C2.22146 7.54984 2.27913 7.58265 2.32881 7.62568C2.37849 7.66871 2.4192 7.7211 2.44862 7.77987Z" fill="#5D2C02"/>
</svg>
