<svg width="16" height="16" viewBox="0 0 16 16" fill="none" xmlns="http://www.w3.org/2000/svg">
<path d="M14.4324 13.2573C13.4805 11.6117 12.0137 10.4317 10.3018 9.87232C11.1486 9.36823 11.8065 8.60012 12.1744 7.68594C12.5424 6.77176 12.6001 5.76207 12.3387 4.81191C12.0773 3.86176 11.5112 3.02369 10.7274 2.42639C9.94359 1.8291 8.98538 1.50562 7.99993 1.50562C7.01447 1.50562 6.05626 1.8291 5.27244 2.42639C4.48863 3.02369 3.92255 3.86176 3.66114 4.81191C3.39973 5.76207 3.45744 6.77176 3.82542 7.68594C4.19339 8.60012 4.85128 9.36823 5.69805 9.87232C3.98618 10.4311 2.5193 11.6111 1.56743 13.2573C1.53252 13.3142 1.50936 13.3776 1.49933 13.4436C1.4893 13.5096 1.49259 13.5769 1.509 13.6417C1.52542 13.7064 1.55463 13.7672 1.59492 13.8204C1.63521 13.8736 1.68575 13.9183 1.74357 13.9517C1.80138 13.9851 1.8653 14.0066 1.93155 14.0148C1.99781 14.0231 2.06505 14.0181 2.12931 14C2.19358 13.9818 2.25356 13.951 2.30573 13.9094C2.3579 13.8677 2.40119 13.816 2.43305 13.7573C3.61055 11.7223 5.6918 10.5073 7.99993 10.5073C10.3081 10.5073 12.3893 11.7223 13.5668 13.7573C13.5987 13.816 13.642 13.8677 13.6941 13.9094C13.7463 13.951 13.8063 13.9818 13.8705 14C13.9348 14.0181 14.002 14.0231 14.0683 14.0148C14.1345 14.0066 14.1985 13.9851 14.2563 13.9517C14.3141 13.9183 14.3646 13.8736 14.4049 13.8204C14.4452 13.7672 14.4744 13.7064 14.4908 13.6417C14.5073 13.5769 14.5106 13.5096 14.5005 13.4436C14.4905 13.3776 14.4673 13.3142 14.4324 13.2573ZM4.49993 6.00732C4.49993 5.31508 4.7052 4.63839 5.08978 4.06282C5.47437 3.48725 6.02099 3.03864 6.66053 2.77374C7.30007 2.50883 8.00381 2.43952 8.68274 2.57457C9.36168 2.70962 9.98531 3.04296 10.4748 3.53244C10.9643 4.02193 11.2976 4.64557 11.4327 5.3245C11.5677 6.00343 11.4984 6.70717 11.2335 7.34671C10.9686 7.98625 10.52 8.53288 9.94442 8.91746C9.36885 9.30205 8.69216 9.50732 7.99993 9.50732C7.07197 9.50632 6.18231 9.13726 5.52615 8.48109C4.86999 7.82493 4.50092 6.93527 4.49993 6.00732Z" fill="black"/>
</svg>
