<svg width="11" height="12" viewBox="0 0 11 12" fill="none" xmlns="http://www.w3.org/2000/svg">
<path d="M8.50488 3.50208V11.5057C8.50488 11.6384 8.45217 11.7657 8.35836 11.8595C8.26455 11.9533 8.13732 12.006 8.00465 12.006C7.87198 12.006 7.74474 11.9533 7.65093 11.8595C7.55712 11.7657 7.50442 11.6384 7.50442 11.5057V3.50208C7.50442 3.36941 7.55712 3.24217 7.65093 3.14836C7.74474 3.05455 7.87198 3.00185 8.00465 3.00185C8.13732 3.00185 8.26455 3.05455 8.35836 3.14836C8.45217 3.24217 8.50488 3.36941 8.50488 3.50208ZM10.5058 0.500702C10.3731 0.500702 10.2459 0.553404 10.1521 0.647216C10.0583 0.741027 10.0056 0.868262 10.0056 1.00093V11.5057C10.0056 11.6384 10.0583 11.7657 10.1521 11.8595C10.2459 11.9533 10.3731 12.006 10.5058 12.006C10.6385 12.006 10.7657 11.9533 10.8595 11.8595C10.9533 11.7657 11.006 11.6384 11.006 11.5057V1.00093C11.006 0.868262 10.9533 0.741027 10.8595 0.647216C10.7657 0.553404 10.6385 0.500702 10.5058 0.500702ZM5.5035 5.503C5.37083 5.503 5.2436 5.5557 5.14978 5.64951C5.05597 5.74332 5.00327 5.87056 5.00327 6.00323V11.5057C5.00327 11.6384 5.05597 11.7657 5.14978 11.8595C5.2436 11.9533 5.37083 12.006 5.5035 12.006C5.63617 12.006 5.7634 11.9533 5.85722 11.8595C5.95103 11.7657 6.00373 11.6384 6.00373 11.5057V6.00323C6.00373 5.87056 5.95103 5.74332 5.85722 5.64951C5.7634 5.5557 5.63617 5.503 5.5035 5.503ZM3.00235 8.00414C2.86968 8.00414 2.74245 8.05685 2.64864 8.15066C2.55483 8.24447 2.50212 8.3717 2.50212 8.50437V11.5057C2.50212 11.6384 2.55483 11.7657 2.64864 11.8595C2.74245 11.9533 2.86968 12.006 3.00235 12.006C3.13502 12.006 3.26226 11.9533 3.35607 11.8595C3.44988 11.7657 3.50258 11.6384 3.50258 11.5057V8.50437C3.50258 8.3717 3.44988 8.24447 3.35607 8.15066C3.26226 8.05685 3.13502 8.00414 3.00235 8.00414ZM0.501206 10.5053C0.368537 10.5053 0.241302 10.558 0.14749 10.6518C0.0536793 10.7456 0.000976563 10.8729 0.000976562 11.0055V11.5057C0.000976562 11.6384 0.0536793 11.7657 0.14749 11.8595C0.241302 11.9533 0.368537 12.006 0.501206 12.006C0.633875 12.006 0.76111 11.9533 0.854922 11.8595C0.948733 11.7657 1.00144 11.6384 1.00144 11.5057V11.0055C1.00144 10.8729 0.948733 10.7456 0.854922 10.6518C0.76111 10.558 0.633875 10.5053 0.501206 10.5053Z" fill="black"/>
</svg>
