<svg width="36" height="25" viewBox="0 0 36 25" fill="none" xmlns="http://www.w3.org/2000/svg">
<path d="M29.9631 5.60463C28.3428 3.98065 26.417 2.69349 24.2969 1.81737C22.1767 0.941248 19.9041 0.493501 17.61 0.499947H17.5475C7.93344 0.532759 0.110001 8.4687 0.110001 18.1765V21.7499C0.110001 22.413 0.373393 23.0489 0.842234 23.5177C1.31107 23.9866 1.94696 24.2499 2.61 24.2499H32.61C33.273 24.2499 33.9089 23.9866 34.3778 23.5177C34.8466 23.0489 35.11 22.413 35.11 21.7499V17.9999C35.1164 15.6959 34.6647 13.4135 33.7811 11.2855C32.8975 9.15757 31.5997 7.22651 29.9631 5.60463ZM32.61 21.7499H16.3147L24.8709 9.98432C25.0661 9.7162 25.1468 9.38153 25.0952 9.05393C25.0437 8.72633 24.8641 8.43263 24.5959 8.23745C24.3278 8.04226 23.9932 7.96158 23.6655 8.01316C23.3379 8.06473 23.0442 8.24433 22.8491 8.51245L13.2225 21.7499H2.61V18.1765C2.61 17.6953 2.63344 17.2203 2.67719 16.7499H6.36C6.69152 16.7499 7.00946 16.6183 7.24388 16.3838C7.47831 16.1494 7.61 15.8315 7.61 15.4999C7.61 15.1684 7.47831 14.8505 7.24388 14.6161C7.00946 14.3816 6.69152 14.2499 6.36 14.2499H3.12094C4.73344 8.17807 9.99594 3.58745 16.36 3.05307V6.74995C16.36 7.08147 16.4917 7.39941 16.7261 7.63383C16.9605 7.86825 17.2785 7.99995 17.61 7.99995C17.9415 7.99995 18.2595 7.86825 18.4939 7.63383C18.7283 7.39941 18.86 7.08147 18.86 6.74995V3.05151C21.961 3.31248 24.9045 4.5301 27.2836 6.53613C29.6627 8.54217 31.3601 11.2376 32.1413 14.2499H28.86C28.5285 14.2499 28.2105 14.3816 27.9761 14.6161C27.7417 14.8505 27.61 15.1684 27.61 15.4999C27.61 15.8315 27.7417 16.1494 27.9761 16.3838C28.2105 16.6183 28.5285 16.7499 28.86 16.7499H32.5584C32.5913 17.164 32.61 17.5796 32.61 17.9999V21.7499Z" fill="#5D2C02"/>
</svg>
