<svg width="39" height="29" viewBox="0 0 39 29" fill="none" xmlns="http://www.w3.org/2000/svg">
<path d="M37.6543 16.5C37.5229 16.5985 37.3735 16.6701 37.2145 16.7109C37.0555 16.7516 36.89 16.7606 36.7275 16.7374C36.565 16.7142 36.4086 16.6592 36.2674 16.5756C36.1261 16.492 36.0028 16.3813 35.9043 16.25C35.1508 15.2373 34.1702 14.4156 33.0412 13.8511C31.9122 13.2866 30.6665 12.9951 29.4043 13C29.1585 13 28.9181 12.9275 28.7133 12.7916C28.5085 12.6557 28.3483 12.4624 28.2527 12.2359C28.1878 12.0821 28.1544 11.9169 28.1544 11.75C28.1544 11.5831 28.1878 11.4178 28.2527 11.2641C28.3483 11.0376 28.5085 10.8443 28.7133 10.7084C28.9181 10.5725 29.1585 10.5 29.4043 10.5C30.1056 10.4999 30.7929 10.3032 31.3881 9.93209C31.9832 9.561 32.4624 9.03044 32.7711 8.40068C33.0798 7.77093 33.2058 7.06721 33.1346 6.36947C33.0634 5.67172 32.798 5.00792 32.3685 4.45347C31.939 3.89901 31.3626 3.47612 30.7047 3.23283C30.0469 2.98954 29.3341 2.93561 28.6471 3.07716C27.9602 3.2187 27.3267 3.55005 26.8187 4.03357C26.3106 4.51709 25.9484 5.1334 25.773 5.81249C25.732 5.97152 25.66 6.1209 25.5612 6.25211C25.4625 6.38332 25.3388 6.4938 25.1974 6.57723C25.0559 6.66066 24.8994 6.7154 24.7368 6.73834C24.5741 6.76128 24.4086 6.75197 24.2496 6.71093C24.0906 6.66989 23.9412 6.59794 23.81 6.49917C23.6787 6.4004 23.5683 6.27675 23.4848 6.13529C23.4014 5.99382 23.3467 5.83731 23.3237 5.67469C23.3008 5.51206 23.3101 5.34652 23.3511 5.18749C23.5945 4.2458 24.0543 3.3739 24.6939 2.64117C25.3336 1.90844 26.1354 1.33511 27.0356 0.966791C27.9358 0.598475 28.9095 0.445341 29.8793 0.519573C30.8491 0.593805 31.7882 0.893355 32.6219 1.39439C33.4555 1.89542 34.1608 2.58411 34.6814 3.40565C35.2021 4.22719 35.5238 5.15891 35.621 6.12668C35.7182 7.09444 35.5882 8.07154 35.2414 8.98023C34.8945 9.88891 34.3404 10.7041 33.623 11.3609C35.3227 12.0969 36.8003 13.2647 37.909 14.7484C38.0074 14.8801 38.079 15.0299 38.1195 15.1892C38.16 15.3486 38.1687 15.5143 38.145 15.6771C38.1214 15.8398 38.0658 15.9962 37.9816 16.1374C37.8974 16.2786 37.7862 16.4018 37.6543 16.5ZM29.2355 26.125C29.326 26.2673 29.3867 26.4264 29.414 26.5927C29.4414 26.7591 29.4348 26.9292 29.3947 27.093C29.3546 27.2567 29.2818 27.4107 29.1807 27.5455C29.0795 27.6804 28.9521 27.7934 28.8062 27.8778C28.6602 27.9622 28.4987 28.0161 28.3313 28.0365C28.164 28.0568 27.9943 28.0431 27.8323 27.9961C27.6704 27.9491 27.5197 27.8699 27.3892 27.7631C27.2587 27.6564 27.1512 27.5244 27.073 27.375C26.2856 26.0417 25.1641 24.9367 23.8193 24.1691C22.4745 23.4014 20.9527 22.9977 19.4043 22.9977C17.8558 22.9977 16.3341 23.4014 14.9892 24.1691C13.6444 24.9367 12.5229 26.0417 11.7355 27.375C11.6574 27.5244 11.5498 27.6564 11.4193 27.7631C11.2888 27.8699 11.1381 27.9491 10.9762 27.9961C10.8143 28.0431 10.6445 28.0568 10.4772 28.0365C10.3098 28.0161 10.1483 27.9622 10.0024 27.8778C9.8564 27.7934 9.72902 27.6804 9.62787 27.5455C9.52673 27.4107 9.45391 27.2567 9.4138 27.093C9.37369 26.9292 9.36712 26.7591 9.39448 26.5927C9.42185 26.4264 9.48257 26.2673 9.57302 26.125C10.7849 24.0428 12.6327 22.4042 14.8449 21.45C13.6001 20.4969 12.6852 19.1777 12.229 17.6779C11.7727 16.178 11.7979 14.5728 12.301 13.088C12.8042 11.6031 13.76 10.3133 15.0341 9.3998C16.3082 8.48628 17.8365 7.99499 19.4043 7.99499C20.972 7.99499 22.5004 8.48628 23.7745 9.3998C25.0486 10.3133 26.0044 11.6031 26.5075 13.088C27.0107 14.5728 27.0359 16.178 26.5796 17.6779C26.1233 19.1777 25.2084 20.4969 23.9636 21.45C26.1758 22.4042 28.0236 24.0428 29.2355 26.125ZM19.4043 20.5C20.3932 20.5 21.3599 20.2067 22.1821 19.6573C23.0044 19.1079 23.6452 18.327 24.0237 17.4134C24.4021 16.4998 24.5011 15.4944 24.3082 14.5245C24.1153 13.5546 23.6391 12.6637 22.9398 11.9645C22.2405 11.2652 21.3496 10.789 20.3797 10.5961C19.4098 10.4031 18.4045 10.5022 17.4908 10.8806C16.5772 11.259 15.7963 11.8999 15.2469 12.7221C14.6975 13.5444 14.4043 14.5111 14.4043 15.5C14.4043 16.8261 14.9311 18.0978 15.8687 19.0355C16.8064 19.9732 18.0782 20.5 19.4043 20.5ZM10.6543 11.75C10.6543 11.4185 10.5226 11.1005 10.2881 10.8661C10.0537 10.6317 9.73579 10.5 9.40427 10.5C8.7029 10.4999 8.01562 10.3032 7.42047 9.93209C6.82532 9.561 6.34617 9.03044 6.03744 8.40068C5.72871 7.77093 5.60278 7.06721 5.67395 6.36947C5.74512 5.67172 6.01054 5.00792 6.44006 4.45347C6.86958 3.89901 7.44598 3.47612 8.1038 3.23283C8.76161 2.98954 9.47447 2.93561 10.1614 3.07716C10.8483 3.2187 11.4818 3.55005 11.9899 4.03357C12.4979 4.51709 12.8602 5.1334 13.0355 5.81249C13.1184 6.13365 13.3255 6.40874 13.6112 6.57723C13.8969 6.74572 14.2378 6.79381 14.559 6.71093C14.8801 6.62805 15.1552 6.42099 15.3237 6.13529C15.4922 5.84959 15.5403 5.50865 15.4574 5.18749C15.214 4.2458 14.7542 3.3739 14.1146 2.64117C13.475 1.90844 12.6731 1.33511 11.7729 0.966791C10.8727 0.598475 9.899 0.445341 8.9292 0.519573C7.9594 0.593805 7.02031 0.893355 6.18665 1.39439C5.35299 1.89542 4.64778 2.58411 4.12711 3.40565C3.60645 4.22719 3.28471 5.15891 3.1875 6.12668C3.09029 7.09444 3.22029 8.07154 3.56715 8.98023C3.91401 9.88891 4.46816 10.7041 5.18552 11.3609C3.48752 12.0976 2.01163 13.2653 0.904267 14.7484C0.705148 15.0136 0.61954 15.3471 0.666278 15.6754C0.713016 16.0038 0.88827 16.3001 1.15349 16.4992C1.4187 16.6983 1.75216 16.7839 2.08049 16.7372C2.40883 16.6905 2.70515 16.5152 2.90427 16.25C3.65768 15.2373 4.63835 14.4156 5.76733 13.8511C6.8963 13.2866 8.14204 12.9951 9.40427 13C9.73579 13 10.0537 12.8683 10.2881 12.6339C10.5226 12.3995 10.6543 12.0815 10.6543 11.75Z" fill="#5D2C02"/>
</svg>
