<svg width="34" height="34" viewBox="0 0 34 34" fill="none" xmlns="http://www.w3.org/2000/svg">
<path d="M17.0071 0.75C13.7931 0.75 10.6513 1.70305 7.97903 3.48862C5.30674 5.27419 3.22393 7.81209 1.99401 10.7814C0.764085 13.7507 0.442281 17.018 1.06929 20.1702C1.6963 23.3224 3.24396 26.2179 5.51657 28.4905C7.78917 30.7631 10.6846 32.3108 13.8368 32.9378C16.989 33.5648 20.2564 33.243 23.2257 32.013C26.195 30.7831 28.7329 28.7003 30.5184 26.028C32.304 23.3557 33.2571 20.2139 33.2571 17C33.2525 12.6916 31.539 8.56102 28.4925 5.51454C25.446 2.46806 21.3154 0.75455 17.0071 0.75ZM17.0071 30.75C14.2876 30.75 11.6291 29.9436 9.36796 28.4327C7.10678 26.9218 5.34441 24.7744 4.30371 22.2619C3.263 19.7494 2.99071 16.9847 3.52125 14.3175C4.0518 11.6503 5.36136 9.20025 7.28433 7.27728C9.20731 5.35431 11.6573 4.04475 14.3246 3.5142C16.9918 2.98366 19.7565 3.25595 22.2689 4.29666C24.7814 5.33736 26.9289 7.09973 28.4398 9.36091C29.9506 11.6221 30.7571 14.2805 30.7571 17C30.7529 20.6455 29.3029 24.1404 26.7252 26.7182C24.1475 29.2959 20.6525 30.7459 17.0071 30.75ZM23.2571 20.125C23.2571 21.2853 22.7961 22.3981 21.9756 23.2186C21.1552 24.0391 20.0424 24.5 18.8821 24.5H18.2571V25.75C18.2571 26.0815 18.1254 26.3995 17.8909 26.6339C17.6565 26.8683 17.3386 27 17.0071 27C16.6755 27 16.3576 26.8683 16.1232 26.6339C15.8887 26.3995 15.7571 26.0815 15.7571 25.75V24.5H13.2571C12.9255 24.5 12.6076 24.3683 12.3732 24.1339C12.1387 23.8995 12.0071 23.5815 12.0071 23.25C12.0071 22.9185 12.1387 22.6005 12.3732 22.3661C12.6076 22.1317 12.9255 22 13.2571 22H18.8821C19.3793 22 19.8562 21.8025 20.2079 21.4508C20.5595 21.0992 20.7571 20.6223 20.7571 20.125C20.7571 19.6277 20.5595 19.1508 20.2079 18.7992C19.8562 18.4475 19.3793 18.25 18.8821 18.25H15.1321C13.9717 18.25 12.8589 17.7891 12.0385 16.9686C11.218 16.1481 10.7571 15.0353 10.7571 13.875C10.7571 12.7147 11.218 11.6019 12.0385 10.7814C12.8589 9.96094 13.9717 9.5 15.1321 9.5H15.7571V8.25C15.7571 7.91848 15.8887 7.60054 16.1232 7.36612C16.3576 7.1317 16.6755 7 17.0071 7C17.3386 7 17.6565 7.1317 17.8909 7.36612C18.1254 7.60054 18.2571 7.91848 18.2571 8.25V9.5H20.7571C21.0886 9.5 21.4065 9.6317 21.6409 9.86612C21.8754 10.1005 22.0071 10.4185 22.0071 10.75C22.0071 11.0815 21.8754 11.3995 21.6409 11.6339C21.4065 11.8683 21.0886 12 20.7571 12H15.1321C14.6348 12 14.1579 12.1975 13.8062 12.5492C13.4546 12.9008 13.2571 13.3777 13.2571 13.875C13.2571 14.3723 13.4546 14.8492 13.8062 15.2008C14.1579 15.5525 14.6348 15.75 15.1321 15.75H18.8821C20.0424 15.75 21.1552 16.2109 21.9756 17.0314C22.7961 17.8519 23.2571 18.9647 23.2571 20.125Z" fill="#5D2C02"/>
</svg>
