<svg width="31" height="36" viewBox="0 0 31 36" fill="none" xmlns="http://www.w3.org/2000/svg">
<path d="M15.8014 5.25C12.8347 5.25 9.93458 6.12973 7.46785 7.77796C5.00111 9.42618 3.07852 11.7689 1.94321 14.5097C0.807891 17.2506 0.510841 20.2666 1.08962 23.1764C1.6684 26.0861 3.09701 28.7588 5.1948 30.8566C7.29258 32.9544 9.96533 34.383 12.875 34.9618C15.7848 35.5406 18.8008 35.2435 21.5417 34.1082C24.2825 32.9729 26.6252 31.0503 28.2734 28.5836C29.9217 26.1168 30.8014 23.2167 30.8014 20.25C30.7969 16.2731 29.215 12.4605 26.403 9.64842C23.5909 6.83636 19.7783 5.25455 15.8014 5.25ZM15.8014 32.75C13.3291 32.75 10.9124 32.0169 8.85677 30.6434C6.80116 29.2699 5.199 27.3176 4.2529 25.0335C3.30681 22.7495 3.05927 20.2361 3.54158 17.8114C4.0239 15.3866 5.21441 13.1593 6.96256 11.4112C8.71072 9.66301 10.938 8.4725 13.3628 7.99018C15.7875 7.50787 18.3009 7.75541 20.5849 8.70151C22.869 9.6476 24.8213 11.2498 26.1948 13.3054C27.5683 15.361 28.3014 17.7777 28.3014 20.25C28.2977 23.5641 26.9795 26.7413 24.6361 29.0847C22.2927 31.4281 19.1155 32.7463 15.8014 32.75ZM22.9358 13.1156C23.052 13.2317 23.1442 13.3696 23.2071 13.5213C23.27 13.6731 23.3024 13.8357 23.3024 14C23.3024 14.1643 23.27 14.3269 23.2071 14.4787C23.1442 14.6304 23.052 14.7683 22.9358 14.8844L16.6858 21.1344C16.5696 21.2505 16.4318 21.3426 16.28 21.4055C16.1283 21.4683 15.9656 21.5007 15.8014 21.5007C15.6372 21.5007 15.4745 21.4683 15.3228 21.4055C15.171 21.3426 15.0332 21.2505 14.917 21.1344C14.8009 21.0182 14.7088 20.8804 14.6459 20.7286C14.5831 20.5769 14.5507 20.4142 14.5507 20.25C14.5507 20.0858 14.5831 19.9231 14.6459 19.7714C14.7088 19.6196 14.8009 19.4818 14.917 19.3656L21.167 13.1156C21.2831 12.9994 21.421 12.9072 21.5727 12.8443C21.7245 12.7814 21.8871 12.749 22.0514 12.749C22.2157 12.749 22.3783 12.7814 22.5301 12.8443C22.6818 12.9072 22.8197 12.9994 22.9358 13.1156ZM10.8014 1.5C10.8014 1.16848 10.9331 0.850537 11.1675 0.616116C11.4019 0.381696 11.7199 0.25 12.0514 0.25H19.5514C19.8829 0.25 20.2009 0.381696 20.4353 0.616116C20.6697 0.850537 20.8014 1.16848 20.8014 1.5C20.8014 1.83152 20.6697 2.14946 20.4353 2.38388C20.2009 2.6183 19.8829 2.75 19.5514 2.75H12.0514C11.7199 2.75 11.4019 2.6183 11.1675 2.38388C10.9331 2.14946 10.8014 1.83152 10.8014 1.5Z" fill="#5D2C02"/>
</svg>
