<svg width="16" height="12" viewBox="0 0 16 12" fill="none" xmlns="http://www.w3.org/2000/svg">
<path d="M15.3216 6.40432C15.2691 6.44373 15.2093 6.47241 15.1456 6.48872C15.082 6.50502 15.0158 6.50863 14.9507 6.49934C14.8857 6.49005 14.8232 6.46804 14.7666 6.43457C14.7101 6.4011 14.6607 6.35683 14.6213 6.30427C14.3198 5.899 13.9274 5.57018 13.4756 5.34428C13.0238 5.11838 12.5252 5.00172 12.0201 5.00368C11.9217 5.00367 11.8256 4.97466 11.7436 4.92027C11.6616 4.86589 11.5975 4.78854 11.5593 4.69791C11.5333 4.63637 11.5199 4.57025 11.5199 4.50345C11.5199 4.43665 11.5333 4.37053 11.5593 4.30898C11.5975 4.21835 11.6616 4.14101 11.7436 4.08662C11.8256 4.03224 11.9217 4.00323 12.0201 4.00322C12.3008 4.00319 12.5758 3.92446 12.814 3.77595C13.0522 3.62745 13.2439 3.41513 13.3675 3.16311C13.491 2.91109 13.5414 2.62947 13.5129 2.35025C13.4844 2.07102 13.3782 1.80538 13.2063 1.5835C13.0345 1.36161 12.8038 1.19238 12.5405 1.09502C12.2773 0.99766 11.992 0.976076 11.7171 1.03272C11.4422 1.08936 11.1887 1.22197 10.9854 1.41546C10.7821 1.60896 10.6371 1.8556 10.5669 2.12736C10.5505 2.191 10.5217 2.25078 10.4822 2.30329C10.4427 2.35579 10.3932 2.40001 10.3366 2.43339C10.28 2.46678 10.2173 2.48869 10.1523 2.49787C10.0872 2.50705 10.0209 2.50332 9.95729 2.4869C9.89365 2.47047 9.83387 2.44168 9.78137 2.40215C9.72886 2.36263 9.68465 2.31315 9.65126 2.25653C9.61787 2.19992 9.59596 2.13729 9.58678 2.07221C9.5776 2.00713 9.58133 1.94088 9.59775 1.87724C9.69515 1.50039 9.87915 1.15147 10.1351 0.858245C10.3911 0.56502 10.712 0.335582 11.0722 0.188187C11.4325 0.0407934 11.8221 -0.0204884 12.2102 0.00921803C12.5983 0.0389245 12.9741 0.158799 13.3078 0.359304C13.6414 0.559809 13.9236 0.83541 14.1319 1.16418C14.3403 1.49295 14.4691 1.8658 14.508 2.25309C14.5469 2.64037 14.4948 3.03139 14.356 3.39503C14.2172 3.75867 13.9955 4.0849 13.7084 4.34775C14.3886 4.64226 14.9799 5.10961 15.4236 5.70337C15.463 5.75606 15.4916 5.816 15.5078 5.87977C15.524 5.94354 15.5275 6.00988 15.518 6.07499C15.5086 6.1401 15.4863 6.20271 15.4526 6.25922C15.4189 6.31573 15.3744 6.36504 15.3216 6.40432ZM11.9526 10.2561C11.9888 10.313 12.0131 10.3767 12.024 10.4433C12.035 10.5098 12.0323 10.5779 12.0163 10.6435C12.0002 10.709 11.9711 10.7706 11.9306 10.8246C11.8902 10.8785 11.8392 10.9238 11.7808 10.9575C11.7224 10.9913 11.6577 11.0129 11.5908 11.021C11.5238 11.0292 11.4559 11.0237 11.3911 11.0049C11.3263 10.9861 11.2659 10.9544 11.2137 10.9116C11.1615 10.8689 11.1185 10.8161 11.0872 10.7563C10.7721 10.2227 10.3233 9.78054 9.78511 9.47335C9.24693 9.16616 8.63796 9.0046 8.01828 9.0046C7.3986 9.0046 6.78963 9.16616 6.25145 9.47335C5.71328 9.78054 5.26449 10.2227 4.94937 10.7563C4.9181 10.8161 4.87506 10.8689 4.82284 10.9116C4.77062 10.9544 4.7103 10.9861 4.6455 11.0049C4.58071 11.0237 4.51278 11.0292 4.44581 11.021C4.37883 11.0129 4.3142 10.9913 4.25579 10.9575C4.19738 10.9238 4.1464 10.8785 4.10593 10.8246C4.06545 10.7706 4.03631 10.709 4.02026 10.6435C4.00421 10.5779 4.00158 10.5098 4.01253 10.4433C4.02348 10.3767 4.04778 10.313 4.08398 10.2561C4.56895 9.42282 5.30841 8.76707 6.19369 8.38523C5.69554 8.00383 5.32944 7.47591 5.14684 6.87568C4.96424 6.27545 4.97432 5.63309 5.17567 5.03888C5.37702 4.44468 5.75952 3.92852 6.2694 3.56294C6.77927 3.19736 7.39089 3.00076 8.01828 3.00076C8.64567 3.00076 9.25729 3.19736 9.76716 3.56294C10.277 3.92852 10.6595 4.44468 10.8609 5.03888C11.0622 5.63309 11.0723 6.27545 10.8897 6.87568C10.7071 7.47591 10.341 8.00383 9.84287 8.38523C10.7282 8.76707 11.4676 9.42282 11.9526 10.2561ZM8.01828 8.00505C8.41402 8.00505 8.80088 7.8877 9.12993 7.66784C9.45898 7.44797 9.71544 7.13547 9.86689 6.76985C10.0183 6.40423 10.058 6.00192 9.98075 5.61378C9.90354 5.22564 9.71297 4.86911 9.43314 4.58927C9.15331 4.30944 8.79678 4.11887 8.40864 4.04167C8.0205 3.96446 7.61818 4.00408 7.25256 4.15553C6.88694 4.30697 6.57444 4.56344 6.35458 4.89249C6.13471 5.22154 6.01736 5.60839 6.01736 6.00414C6.01736 6.53481 6.22817 7.04375 6.60342 7.419C6.97866 7.79424 7.4876 8.00505 8.01828 8.00505ZM4.51667 4.50345C4.51667 4.37078 4.46397 4.24354 4.37016 4.14973C4.27635 4.05592 4.14911 4.00322 4.01644 4.00322C3.73577 4.00319 3.46073 3.92446 3.22256 3.77595C2.98439 3.62745 2.79264 3.41513 2.6691 3.16311C2.54555 2.91109 2.49515 2.62947 2.52363 2.35025C2.55211 2.07102 2.65833 1.80538 2.83022 1.5835C3.0021 1.36161 3.23277 1.19238 3.49602 1.09502C3.75926 0.99766 4.04454 0.976076 4.31944 1.03272C4.59434 1.08936 4.84784 1.22197 5.05115 1.41546C5.25447 1.60896 5.39944 1.8556 5.46961 2.12736C5.50278 2.25588 5.58564 2.36596 5.69997 2.43339C5.81431 2.50082 5.95074 2.52007 6.07927 2.4869C6.20779 2.45373 6.31787 2.37087 6.3853 2.25653C6.45273 2.1422 6.47197 2.00577 6.43881 1.87724C6.34141 1.50039 6.15741 1.15147 5.90144 0.858245C5.64547 0.56502 5.3246 0.335582 4.96435 0.188187C4.6041 0.0407934 4.21443 -0.0204884 3.82633 0.00921803C3.43823 0.0389245 3.06242 0.158799 2.72881 0.359304C2.39519 0.559809 2.11297 0.83541 1.90461 1.16418C1.69625 1.49295 1.5675 1.8658 1.5286 2.25309C1.48969 2.64037 1.54172 3.03139 1.68053 3.39503C1.81933 3.75867 2.0411 4.0849 2.32817 4.34775C1.64866 4.64254 1.05803 5.10987 0.614884 5.70337C0.5352 5.80951 0.500941 5.94295 0.519645 6.07435C0.538348 6.20574 0.608482 6.32432 0.714617 6.40401C0.820753 6.48369 0.954195 6.51795 1.08559 6.49925C1.21698 6.48054 1.33557 6.41041 1.41525 6.30427C1.71676 5.899 2.1092 5.57018 2.561 5.34428C3.0128 5.11838 3.51132 5.00172 4.01644 5.00368C4.14911 5.00368 4.27635 4.95097 4.37016 4.85716C4.46397 4.76335 4.51667 4.63612 4.51667 4.50345Z" fill="black"/>
</svg>
