<svg width="202" height="61" viewBox="0 0 202 61" fill="none" xmlns="http://www.w3.org/2000/svg">
<rect width="202" height="61" rx="10" fill="#2B2B2B"/>
<path d="M78.784 44.502H77.0111L76.8092 42.2602C76.4202 42.9626 75.7843 43.5679 74.9016 44.0761C74.0189 44.5842 72.9567 44.8383 71.715 44.8383C70.3535 44.8383 69.0968 44.5319 67.9448 43.9191C66.7928 43.2914 65.8428 42.3349 65.0947 41.0497C64.3617 39.7644 63.9951 38.2624 63.9951 36.5437C63.9951 34.825 64.3841 33.3231 65.1621 32.0378C65.94 30.7525 66.9125 29.8035 68.0794 29.1907C69.2614 28.578 70.5256 28.2716 71.872 28.2716C73.5776 28.2716 75.0587 28.7125 76.3154 29.5942C77.5871 30.4611 78.4549 31.6193 78.9187 33.069L76.9214 33.9209C76.5623 32.7701 75.9339 31.8808 75.0363 31.2532C74.1536 30.6105 73.0988 30.2892 71.872 30.2892C70.3311 30.2892 69.007 30.8347 67.8999 31.9257C66.7928 33.0167 66.2393 34.556 66.2393 36.5437C66.2393 38.5464 66.7778 40.1007 67.855 41.2066C68.9472 42.2976 70.2563 42.8431 71.7823 42.8431C72.6201 42.8431 73.3607 42.7086 74.004 42.4396C74.6623 42.1706 75.1709 41.8193 75.53 41.3859C75.904 40.9376 76.1808 40.4892 76.3603 40.0409C76.5548 39.5925 76.667 39.1442 76.6969 38.6958H71.1764V36.7231H78.784V44.502ZM84.162 41.9464C84.8203 42.6189 85.6207 42.9552 86.5633 42.9552C87.5058 42.9552 88.2987 42.6189 88.942 41.9464C89.6003 41.2589 89.9295 40.3099 89.9295 39.0993C89.9295 37.9037 89.6003 36.9697 88.942 36.2971C88.2987 35.6097 87.5058 35.2659 86.5633 35.2659C85.6207 35.2659 84.8203 35.6097 84.162 36.2971C83.5187 36.9697 83.197 37.9037 83.197 39.0993C83.197 40.3099 83.5187 41.2589 84.162 41.9464ZM82.5911 35.0193C83.6384 33.9283 84.9624 33.3828 86.5633 33.3828C88.1641 33.3828 89.4806 33.9283 90.5129 35.0193C91.5602 36.0954 92.0838 37.4554 92.0838 39.0993C92.0838 40.7582 91.5677 42.1332 90.5354 43.2242C89.5031 44.3002 88.179 44.8383 86.5633 44.8383C84.9475 44.8383 83.6234 44.3002 82.5911 43.2242C81.5588 42.1332 81.0427 40.7582 81.0427 39.0993C81.0427 37.4554 81.5588 36.0954 82.5911 35.0193ZM97.0045 41.9464C97.6628 42.6189 98.4632 42.9552 99.4057 42.9552C100.348 42.9552 101.141 42.6189 101.785 41.9464C102.443 41.2589 102.772 40.3099 102.772 39.0993C102.772 37.9037 102.443 36.9697 101.785 36.2971C101.141 35.6097 100.348 35.2659 99.4057 35.2659C98.4632 35.2659 97.6628 35.6097 97.0045 36.2971C96.3612 36.9697 96.0395 37.9037 96.0395 39.0993C96.0395 40.3099 96.3612 41.2589 97.0045 41.9464ZM95.4336 35.0193C96.4809 33.9283 97.8049 33.3828 99.4057 33.3828C101.007 33.3828 102.323 33.9283 103.355 35.0193C104.403 36.0954 104.926 37.4554 104.926 39.0993C104.926 40.7582 104.41 42.1332 103.378 43.2242C102.346 44.3002 101.021 44.8383 99.4057 44.8383C97.7899 44.8383 96.4659 44.3002 95.4336 43.2242C94.4013 42.1332 93.8851 40.7582 93.8851 39.0993C93.8851 37.4554 94.4013 36.0954 95.4336 35.0193ZM106.84 45.0848L108.882 44.6141C108.957 45.3763 109.263 46.004 109.802 46.4972C110.341 47.0053 111.014 47.2594 111.822 47.2594C114.021 47.2594 115.121 46.0936 115.121 43.7622V42.2154C114.851 42.7385 114.425 43.1644 113.842 43.4932C113.273 43.822 112.6 43.9864 111.822 43.9864C110.386 43.9864 109.196 43.5007 108.254 42.5292C107.326 41.5429 106.862 40.2875 106.862 38.7631C106.862 37.2835 107.326 36.0431 108.254 35.0417C109.181 34.0255 110.371 33.5173 111.822 33.5173C113.467 33.5173 114.575 34.0853 115.143 35.2211V33.7191H117.23V43.695C117.23 44.4123 117.133 45.0774 116.939 45.6901C116.759 46.3178 116.467 46.8932 116.063 47.4163C115.659 47.9394 115.091 48.3503 114.358 48.6493C113.64 48.9482 112.794 49.0976 111.822 49.0976C110.49 49.0976 109.361 48.7165 108.433 47.9543C107.506 47.2071 106.974 46.2506 106.84 45.0848ZM112.136 42.2154C113.049 42.2154 113.789 41.9015 114.358 41.2738C114.926 40.6312 115.21 39.7943 115.21 38.7631C115.21 37.7319 114.926 36.9024 114.358 36.2747C113.789 35.6321 113.049 35.3107 112.136 35.3107C111.208 35.3107 110.453 35.6246 109.869 36.2523C109.301 36.88 109.017 37.7169 109.017 38.7631C109.017 39.8242 109.293 40.6686 109.847 41.2963C110.415 41.909 111.178 42.2154 112.136 42.2154ZM122.708 44.502H120.599V28.2716H122.708V44.502ZM127.666 38.0009H133.568C133.538 37.1938 133.269 36.5362 132.76 36.0281C132.251 35.505 131.533 35.2435 130.605 35.2435C129.768 35.2435 129.079 35.52 128.541 36.073C128.002 36.611 127.711 37.2536 127.666 38.0009ZM133.882 40.8031L135.7 41.4308C135.385 42.4321 134.802 43.2541 133.949 43.8967C133.096 44.5244 132.064 44.8383 130.852 44.8383C129.341 44.8383 128.055 44.3226 126.992 43.2914C125.945 42.2453 125.421 40.8404 125.421 39.0769C125.421 37.433 125.93 36.073 126.948 34.9969C127.965 33.9209 129.177 33.3828 130.583 33.3828C132.214 33.3828 133.485 33.8984 134.398 34.9297C135.311 35.9459 135.767 37.3134 135.767 39.0321C135.767 39.3011 135.752 39.5253 135.722 39.7046H127.598C127.613 40.6611 127.927 41.4457 128.541 42.0585C129.169 42.6712 129.94 42.9776 130.852 42.9776C132.393 42.9776 133.403 42.2527 133.882 40.8031ZM146.494 36.0281H149.681C150.623 36.0281 151.371 35.789 151.925 35.3107C152.478 34.8176 152.755 34.16 152.755 33.338C152.755 32.5011 152.478 31.836 151.925 31.3428C151.371 30.8347 150.623 30.5806 149.681 30.5806H146.494V36.0281ZM150.085 38.0009H146.494V44.502H144.295V28.6079H150.085C151.536 28.6079 152.718 29.0562 153.63 29.9529C154.543 30.8496 154.999 31.9705 154.999 33.3156C154.999 34.6756 154.543 35.7965 153.63 36.6782C152.718 37.56 151.536 38.0009 150.085 38.0009ZM159.351 44.502H157.241V28.2716H159.351V44.502ZM162.266 41.6101C162.266 40.6835 162.565 39.9437 163.164 39.3908C163.762 38.8229 164.555 38.4716 165.542 38.3371L168.46 37.9112C169.013 37.8365 169.29 37.5675 169.29 37.1042C169.29 36.5362 169.096 36.0729 168.707 35.7143C168.318 35.3556 167.734 35.1762 166.956 35.1762C166.238 35.1762 165.67 35.378 165.251 35.7815C164.832 36.1701 164.585 36.6932 164.51 37.3508L162.49 36.88C162.595 35.8488 163.066 35.0118 163.904 34.3692C164.742 33.7116 165.744 33.3828 166.911 33.3828C168.437 33.3828 169.567 33.7565 170.3 34.5037C171.033 35.236 171.4 36.1776 171.4 37.3283V42.731C171.4 43.3736 171.445 43.964 171.534 44.502H169.47C169.395 44.0536 169.357 43.5679 169.357 43.0448C169.058 43.5231 168.617 43.9415 168.033 44.3002C167.465 44.6589 166.747 44.8383 165.879 44.8383C164.817 44.8383 163.949 44.5244 163.276 43.8967C162.603 43.2541 162.266 42.4919 162.266 41.6101ZM166.171 43.0673C167.113 43.0673 167.869 42.8132 168.437 42.3051C169.006 41.7969 169.29 40.9899 169.29 39.884V39.3908L165.991 39.884C165.513 39.9587 165.131 40.1305 164.847 40.3996C164.562 40.6686 164.42 41.0347 164.42 41.498C164.42 41.9165 164.577 42.2826 164.892 42.5965C165.221 42.9103 165.647 43.0673 166.171 43.0673ZM177.161 49.0079H174.849L177.542 43.3139L172.897 33.7191H175.32L178.687 41.1618L181.918 33.7191H184.185L177.161 49.0079Z" fill="white"/>
<path opacity="0.6" d="M70.2348 19.9491V16.7978H67.2084V17.8226H69.1234C69.055 18.2496 68.619 19.0012 67.4991 19.0012C66.4817 19.0012 65.5841 18.2923 65.5841 16.9259C65.5841 15.4912 66.5758 14.8678 67.4905 14.8678C68.4737 14.8678 68.9781 15.4912 69.132 16.0292L70.2604 15.6278C69.9612 14.697 69.0807 13.7661 67.4905 13.7661C65.8491 13.7661 64.3872 14.9703 64.3872 16.9259C64.3872 18.8816 65.7807 20.0772 67.4136 20.0772C68.3283 20.0772 68.9268 19.6673 69.2004 19.2574L69.2773 19.9491H70.2348ZM76.824 19.9491V18.8389H74.208V17.4383H76.5761V16.3879H74.208V15.0044H76.824V13.8942H73.0282V19.9491H76.824ZM84.1698 15.013V13.8942H79.1515V15.013H81.0665V19.9491H82.2548V15.013H84.1698ZM91.5153 19.9491V13.8942H90.3185V19.9491H91.5153ZM98.9638 15.013V13.8942H93.9455V15.013H95.8605V19.9491H97.0488V15.013H98.9638ZM105.976 16.9174C105.976 15.551 106.933 14.9019 107.865 14.9019C108.806 14.9019 109.763 15.551 109.763 16.9174C109.763 18.2838 108.806 18.9328 107.865 18.9328C106.933 18.9328 105.976 18.2838 105.976 16.9174ZM104.753 16.9259C104.753 18.8731 106.224 20.0772 107.865 20.0772C109.515 20.0772 110.986 18.8731 110.986 16.9259C110.986 14.9703 109.515 13.7661 107.865 13.7661C106.224 13.7661 104.753 14.9703 104.753 16.9259ZM118.784 19.9491V13.8942H117.604V17.8995L115.082 13.8942H113.611V19.9491H114.791V15.6535L117.544 19.9491H118.784Z" fill="white"/>
<path d="M29.9199 44.0649C29.2869 44.4735 28.5267 44.5971 27.8135 44.4288L40.3455 31.9102L44.4071 35.9674L29.9199 44.0649Z" fill="#F34234"/>
<path d="M26.2582 43.4114C25.9087 42.9473 25.7075 42.3773 25.7075 41.7744V19.4749C25.7075 18.872 25.9087 18.302 26.2582 17.8379L39.0585 30.6246L26.2582 43.4114Z" fill="#00D6FF"/>
<path d="M49.7083 33.0045L46.0579 35.0447L41.6328 30.6243L46.0583 26.2036L49.7089 28.244C50.5835 28.7335 51.1056 29.6233 51.1056 30.6243C51.1056 31.6253 50.5835 32.5149 49.7083 33.0045Z" fill="#FCBA3D"/>
<path d="M40.3456 29.3393L27.8145 16.8214C28.0198 16.773 28.229 16.7471 28.438 16.7471C28.9548 16.7471 29.4697 16.8939 29.9201 17.1845L44.4074 25.2819L40.3456 29.3393Z" fill="#0DB15A"/>
</svg>
