<svg width="147" height="28" viewBox="0 0 147 28" fill="none" xmlns="http://www.w3.org/2000/svg">
<path d="M27.3108 14C27.3108 21.459 21.3058 27.5 13.9054 27.5C6.50499 27.5 0.5 21.459 0.5 14C0.5 6.54095 6.50499 0.5 13.9054 0.5C21.3058 0.5 27.3108 6.54095 27.3108 14Z" stroke="#D4D4D8"/>
<path d="M20.0706 10.9831C19.6544 11.1693 19.2151 11.2857 18.7527 11.3556C19.2151 11.0762 19.585 10.6339 19.7469 10.0985C19.3076 10.3546 18.822 10.5408 18.2902 10.6572C17.874 10.2149 17.2729 9.93555 16.6255 9.93555C15.3769 9.93555 14.3595 10.9598 14.3595 12.2169C14.3595 12.4031 14.3827 12.5661 14.4289 12.729C12.556 12.6359 10.8681 11.728 9.73518 10.3313C9.55021 10.6805 9.4346 11.0529 9.4346 11.472C9.4346 12.2634 9.82767 12.9618 10.452 13.3808C10.082 13.3576 9.73518 13.2644 9.41148 13.1015V13.1248C9.41148 14.2422 10.1976 15.1733 11.2381 15.3828C11.0531 15.4294 10.845 15.4527 10.6369 15.4527C10.4982 15.4527 10.3363 15.4294 10.1976 15.4061C10.4982 16.314 11.3306 16.9891 12.3248 16.9891C11.5387 17.5943 10.5676 17.9668 9.50397 17.9668C9.31899 17.9668 9.13402 17.9668 8.97217 17.9435C9.98952 18.5953 11.1687 18.9678 12.4635 18.9678C16.6486 18.9678 18.9376 15.476 18.9376 12.4497C18.9376 12.3566 18.9376 12.2402 18.9376 12.1471C19.3769 11.8444 19.77 11.4487 20.0706 10.9831Z" fill="white"/>
<ellipse cx="53.6349" cy="14" rx="13.9054" ry="14" fill="#2563EB"/>
<path d="M52.3523 20.3038V14.7503H50.4961V12.5859H52.3523V10.9898C52.3523 9.13752 53.476 8.12891 55.1172 8.12891C55.9034 8.12891 56.5791 8.18784 56.776 8.21417V10.1499L55.6377 10.1505C54.7451 10.1505 54.5723 10.5775 54.5723 11.2041V12.5859H56.701L56.4238 14.7503H54.5723V20.3038H52.3523Z" fill="white"/>
<path d="M106.77 14C106.77 21.459 100.765 27.5 93.3649 27.5C85.9645 27.5 79.9595 21.459 79.9595 14C79.9595 6.54095 85.9645 0.5 93.3649 0.5C100.765 0.5 106.77 6.54095 106.77 14Z" stroke="#D4D4D8"/>
<path d="M93.3656 8.44721C95.1621 8.44721 95.3749 8.45398 96.0846 8.48656C96.5113 8.49182 96.9339 8.5707 97.3341 8.71979C97.6243 8.83248 97.8879 9.00511 98.1079 9.22656C98.3278 9.44802 98.4993 9.71339 98.6112 10.0056C98.7593 10.4085 98.8377 10.8341 98.8429 11.2637C98.8749 11.9782 98.882 12.1924 98.882 14.0011C98.882 15.8098 98.8752 16.024 98.8429 16.7385C98.8377 17.1681 98.7593 17.5936 98.6112 17.9966C98.4993 18.2888 98.3278 18.5541 98.1079 18.7756C97.8879 18.997 97.6243 19.1697 97.3341 19.2824C96.9339 19.4315 96.5113 19.5103 96.0846 19.5156C95.3752 19.5479 95.1624 19.5549 93.3656 19.5549C91.5688 19.5549 91.3561 19.5482 90.6467 19.5156C90.22 19.5103 89.7974 19.4315 89.3971 19.2824C89.1069 19.1697 88.8433 18.997 88.6234 18.7756C88.4034 18.5541 88.232 18.2888 88.12 17.9966C87.9719 17.5936 87.8936 17.1681 87.8884 16.7385C87.8563 16.024 87.8493 15.8098 87.8493 14.0011C87.8493 12.1924 87.856 11.9782 87.8884 11.2637C87.8936 10.8341 87.9719 10.4085 88.12 10.0056C88.232 9.71339 88.4034 9.44802 88.6234 9.22656C88.8433 9.00511 89.1069 8.83248 89.3971 8.71979C89.7974 8.5707 90.22 8.49182 90.6467 8.48656C91.3564 8.4543 91.5691 8.44721 93.3656 8.44721V8.44721ZM93.3656 7.22656C91.5393 7.22656 91.3093 7.2343 90.5916 7.26721C90.0332 7.27839 89.4806 7.38485 88.9576 7.58205C88.5088 7.75226 88.1024 8.019 87.7666 8.36366C87.424 8.70184 87.1588 9.11127 86.9896 9.56334C86.7938 10.09 86.688 10.6463 86.6769 11.2085C86.6449 11.9304 86.6372 12.162 86.6372 14.0008C86.6372 15.8395 86.6449 16.0711 86.6776 16.7937C86.6887 17.3559 86.7944 17.9122 86.9903 18.4388C87.1593 18.8908 87.4242 19.3002 87.7666 19.6385C88.1026 19.9832 88.5092 20.25 88.9582 20.4201C89.4813 20.6173 90.0338 20.7238 90.5922 20.7349C91.3099 20.7672 91.539 20.7756 93.3663 20.7756C95.1935 20.7756 95.4226 20.7679 96.1403 20.7349C96.6987 20.7238 97.2513 20.6173 97.7743 20.4201C98.2212 20.2457 98.6269 19.9794 98.9657 19.6381C99.3044 19.2968 99.5687 18.8881 99.7416 18.4382C99.9375 17.9115 100.043 17.3553 100.054 16.793C100.086 16.0711 100.094 15.8395 100.094 14.0008C100.094 12.162 100.086 11.9304 100.054 11.2079C100.043 10.6456 99.9368 10.0893 99.741 9.56269C99.572 9.11068 99.307 8.70126 98.9646 8.36301C98.6287 8.01828 98.222 7.75153 97.7731 7.5814C97.25 7.3842 96.6975 7.27775 96.139 7.26656C95.422 7.2343 95.1919 7.22656 93.3656 7.22656Z" fill="white"/>
<path d="M93.3668 10.5234C92.6835 10.5234 92.0154 10.7275 91.4472 11.1097C90.879 11.492 90.4362 12.0353 90.1746 12.6709C89.9131 13.3066 89.8447 14.006 89.978 14.6808C90.1113 15.3556 90.4404 15.9755 90.9236 16.462C91.4068 16.9485 92.0225 17.2798 92.6928 17.414C93.363 17.5482 94.0577 17.4794 94.6891 17.2161C95.3204 16.9528 95.8601 16.5069 96.2397 15.9348C96.6194 15.3627 96.822 14.6902 96.822 14.0021C96.822 13.0795 96.458 12.1947 95.81 11.5423C95.162 10.8899 94.2832 10.5234 93.3668 10.5234ZM93.3668 16.2602C92.9232 16.2602 92.4896 16.1278 92.1208 15.8797C91.752 15.6315 91.4645 15.2789 91.2947 14.8663C91.125 14.4537 91.0806 13.9996 91.1671 13.5616C91.2537 13.1236 91.4673 12.7213 91.7809 12.4055C92.0946 12.0897 92.4942 11.8746 92.9293 11.7875C93.3643 11.7003 93.8153 11.7451 94.2251 11.916C94.6349 12.0869 94.9852 12.3763 95.2317 12.7476C95.4781 13.119 95.6096 13.5555 95.6096 14.0021C95.6096 14.601 95.3733 15.1754 94.9527 15.5988C94.5321 16.0223 93.9617 16.2602 93.3668 16.2602V16.2602Z" fill="white"/>
<path d="M96.9578 11.1981C97.4037 11.1981 97.7652 10.8341 97.7652 10.3852C97.7652 9.93621 97.4037 9.57227 96.9578 9.57227C96.5119 9.57227 96.1504 9.93621 96.1504 10.3852C96.1504 10.8341 96.5119 11.1981 96.9578 11.1981Z" fill="white"/>
<path d="M146.5 14C146.5 21.459 140.495 27.5 133.094 27.5C125.694 27.5 119.689 21.459 119.689 14C119.689 6.54095 125.694 0.5 133.094 0.5C140.495 0.5 146.5 6.54095 146.5 14Z" stroke="#D4D4D8"/>
<path fill-rule="evenodd" clip-rule="evenodd" d="M133.697 7.22656C130.13 7.22656 127.261 10.1155 127.261 13.7065C127.261 16.5684 129.111 18.9984 131.659 19.8624C131.981 19.9164 132.088 19.7274 132.088 19.5384C132.088 19.3764 132.088 18.9714 132.088 18.4314C130.291 18.8364 129.916 17.5674 129.916 17.5674C129.621 16.8114 129.192 16.6224 129.192 16.6224C128.602 16.2174 129.245 16.2174 129.245 16.2174C129.889 16.2714 130.237 16.8924 130.237 16.8924C130.801 17.8914 131.739 17.5944 132.115 17.4324C132.168 17.0004 132.329 16.7304 132.517 16.5684C131.096 16.4064 129.594 15.8394 129.594 13.3555C129.594 12.6535 129.835 12.0595 130.264 11.6275C130.211 11.4655 129.969 10.8175 130.318 9.89952C130.318 9.89952 130.854 9.73752 132.088 10.5745C132.597 10.4395 133.161 10.3585 133.697 10.3585C134.233 10.3585 134.796 10.4395 135.306 10.5745C136.539 9.73752 137.076 9.89952 137.076 9.89952C137.424 10.7905 137.21 11.4385 137.129 11.6275C137.532 12.0865 137.8 12.6535 137.8 13.3555C137.8 15.8394 136.298 16.3794 134.85 16.5414C135.091 16.7304 135.279 17.1354 135.279 17.7294C135.279 18.5934 135.279 19.2954 135.279 19.5114C135.279 19.6734 135.386 19.8894 135.735 19.8354C138.283 18.9984 140.133 16.5684 140.133 13.7065C140.133 10.1155 137.264 7.22656 133.697 7.22656Z" fill="white"/>
</svg>
