<svg width="14" height="14" viewBox="0 0 14 14" fill="none" xmlns="http://www.w3.org/2000/svg">
<path d="M13.95 5.08062C13.8894 4.89399 13.7753 4.72929 13.6218 4.60704C13.4683 4.4848 13.2823 4.4104 13.0868 4.39312L9.37496 4.07312L7.91997 0.613122C7.84421 0.43157 7.71644 0.27649 7.55272 0.167408C7.38901 0.0583271 7.19669 0.00012207 6.99997 0.00012207C6.80324 0.00012207 6.61092 0.0583271 6.44721 0.167408C6.2835 0.27649 6.15572 0.43157 6.07997 0.613122L4.62934 4.07312L0.91309 4.395C0.716862 4.41149 0.52987 4.48554 0.375564 4.60788C0.221257 4.73022 0.106505 4.8954 0.0456975 5.08269C-0.0151101 5.26999 -0.0192664 5.47107 0.03375 5.66071C0.0867664 5.85036 0.194595 6.02014 0.343715 6.14875L3.16309 8.6125L2.31809 12.2712C2.27341 12.4627 2.28616 12.6631 2.35474 12.8474C2.42333 13.0316 2.54471 13.1916 2.70371 13.3072C2.86271 13.4229 3.05227 13.4891 3.2487 13.4976C3.44512 13.5061 3.6397 13.4565 3.80809 13.355L6.99559 11.4175L10.19 13.355C10.3584 13.4565 10.5529 13.5061 10.7494 13.4976C10.9458 13.4891 11.1353 13.4229 11.2943 13.3072C11.4533 13.1916 11.5747 13.0316 11.6433 12.8474C11.7119 12.6631 11.7246 12.4627 11.68 12.2712L10.8356 8.60875L13.6543 6.14875C13.8034 6.01969 13.9111 5.84944 13.9637 5.65939C14.0163 5.46933 14.0115 5.26797 13.95 5.08062ZM12.9987 5.39312L10.18 7.85312C10.0428 7.97246 9.94072 8.12694 9.88478 8.29994C9.82884 8.47295 9.82112 8.65793 9.86246 8.835L10.7093 12.5L7.51747 10.5625C7.36174 10.4677 7.18292 10.4175 7.00059 10.4175C6.81826 10.4175 6.63944 10.4677 6.48372 10.5625L3.29621 12.5L4.13747 8.8375C4.17881 8.66043 4.17109 8.47545 4.11515 8.30244C4.05921 8.12944 3.95715 7.97496 3.81997 7.85562L0.999965 5.39687C0.999736 5.39501 0.999736 5.39312 0.999965 5.39125L4.71497 5.07C4.89634 5.05401 5.06991 4.98881 5.21695 4.88142C5.36399 4.77403 5.47892 4.62853 5.54934 4.46062L6.99997 1.005L8.44996 4.46062C8.52039 4.62853 8.63532 4.77403 8.78236 4.88142C8.92939 4.98881 9.10296 5.05401 9.28434 5.07L13 5.39125C13 5.39125 13 5.395 13 5.39562L12.9987 5.39312Z" fill="#FBBC05"/>
</svg>
