<svg width="10" height="11" viewBox="0 0 10 11" fill="none" xmlns="http://www.w3.org/2000/svg">
<g clip-path="url(#clip0_57_7448)">
<path d="M6.32904 1.97762C6.32901 1.97763 6.32898 1.97763 6.32896 1.97764L6.32904 1.97762ZM6.32904 1.97762L6.32937 1.97751L6.25329 1.74926M5.14311 5.77301L5.14317 5.77319C5.25647 6.11299 5.44735 6.42172 5.7007 6.67493C5.954 6.9281 6.26279 7.11879 6.60259 7.23191C6.60264 7.23192 6.60269 7.23194 6.60274 7.23196L7.03201 7.37497L6.60204 7.51815L6.60185 7.51821C6.26206 7.63151 5.95332 7.82239 5.70012 8.07574C5.44691 8.32908 5.2562 8.63792 5.14309 8.97777L5.00007 9.40705L4.85689 8.97707L4.85685 8.97695C4.74364 8.63725 4.55288 8.32857 4.29968 8.07537C4.04648 7.82217 3.7378 7.63141 3.39809 7.51819L3.39797 7.51815L2.9682 7.37504L3.39797 7.23193L3.39809 7.23189C3.7378 7.11868 4.04648 6.92791 4.29968 6.67472C4.55288 6.42152 4.74364 6.11284 4.85685 5.77313L4.85689 5.77301L5 5.34324L5.14311 5.77301ZM2.22107 2.72111C2.33263 2.60956 2.42653 2.48233 2.50005 2.34384C2.64836 2.62307 2.87697 2.85169 3.1562 3C3.01772 3.07352 2.89049 3.16742 2.77893 3.27897C2.6674 3.3905 2.57351 3.51771 2.5 3.65616C2.42649 3.51771 2.3326 3.3905 2.22107 3.27897C2.10954 3.16744 1.98234 3.07355 1.84388 3.00004C1.98234 2.92653 2.10954 2.83264 2.22107 2.72111ZM2.37125 1.21754L2.5 1.26017L2.50037 1.2603L2.66067 1.31338L2.66088 1.314L2.50024 1.2605L2.5 1.26042L2.49986 1.26037L2.49963 1.2603L2.37125 1.21754ZM6.73356 1.75037C6.78461 1.70712 6.83202 1.65974 6.87532 1.60873C6.91852 1.65964 6.96583 1.70692 7.01675 1.7501C6.9913 1.77169 6.96669 1.79435 6.943 1.81804C6.91929 1.84175 6.89661 1.86639 6.875 1.89186C6.8534 1.86639 6.83072 1.84175 6.80701 1.81804C6.78341 1.79444 6.75891 1.77187 6.73356 1.75037Z" fill="#1F2937" stroke="#1F2937"/>
</g>
<defs>
<clipPath id="clip0_57_7448">
<rect width="10" height="10" fill="white" transform="translate(0 0.5)"/>
</clipPath>
</defs>
</svg>
