<svg width="13" height="15" viewBox="0 0 13 15" fill="none" xmlns="http://www.w3.org/2000/svg">
<path d="M6.01106 2.50116C4.82382 2.50116 3.66325 2.85322 2.67611 3.51281C1.68896 4.1724 0.91957 5.1099 0.465236 6.20676C0.0109017 7.30362 -0.107973 8.51057 0.123645 9.67499C0.355262 10.8394 0.926969 11.909 1.76647 12.7485C2.60597 13.588 3.67556 14.1597 4.83998 14.3913C6.0044 14.6229 7.21135 14.5041 8.30821 14.0497C9.40507 13.5954 10.3426 12.826 11.0022 11.8389C11.6618 10.8517 12.0138 9.69115 12.0138 8.50391C12.012 6.91244 11.379 5.38668 10.2536 4.26134C9.12829 3.136 7.60253 2.50298 6.01106 2.50116ZM6.01106 13.5062C5.0217 13.5062 4.05455 13.2128 3.23193 12.6632C2.40931 12.1135 1.76815 11.3323 1.38954 10.4182C1.01093 9.50416 0.911865 8.49837 1.10488 7.52802C1.29789 6.55767 1.77432 5.66634 2.4739 4.96676C3.17348 4.26718 4.06481 3.79075 5.03516 3.59774C6.00551 3.40472 7.0113 3.50379 7.92535 3.8824C8.8394 4.26101 9.62065 4.90217 10.1703 5.72479C10.72 6.54741 11.0134 7.51455 11.0134 8.50391C11.0119 9.83015 10.4844 11.1016 9.54657 12.0394C8.60878 12.9772 7.33729 13.5047 6.01106 13.5062ZM8.86612 5.64886C8.91263 5.69531 8.94952 5.75048 8.9747 5.81121C8.99987 5.87194 9.01283 5.93703 9.01283 6.00277C9.01283 6.06851 8.99987 6.1336 8.9747 6.19433C8.94952 6.25505 8.91263 6.31022 8.86612 6.35668L6.36497 8.85783C6.31849 8.9043 6.26332 8.94117 6.20259 8.96632C6.14187 8.99148 6.07678 9.00442 6.01106 9.00442C5.94533 9.00442 5.88025 8.99148 5.81952 8.96632C5.7588 8.94117 5.70362 8.9043 5.65714 8.85783C5.61067 8.81135 5.5738 8.75618 5.54865 8.69545C5.52349 8.63473 5.51055 8.56964 5.51055 8.50391C5.51055 8.43819 5.52349 8.3731 5.54865 8.31238C5.5738 8.25165 5.61067 8.19648 5.65714 8.15L8.15829 5.64886C8.20475 5.60235 8.25992 5.56545 8.32065 5.54028C8.38137 5.5151 8.44647 5.50214 8.5122 5.50214C8.57794 5.50214 8.64303 5.5151 8.70376 5.54028C8.76449 5.56545 8.81966 5.60235 8.86612 5.64886ZM4.01014 1.00047C4.01014 0.867804 4.06284 0.740569 4.15665 0.646758C4.25046 0.552947 4.3777 0.500244 4.51037 0.500244H7.51174C7.64441 0.500244 7.77165 0.552947 7.86546 0.646758C7.95927 0.740569 8.01197 0.867804 8.01197 1.00047C8.01197 1.13314 7.95927 1.26038 7.86546 1.35419C7.77165 1.448 7.64441 1.5007 7.51174 1.5007H4.51037C4.3777 1.5007 4.25046 1.448 4.15665 1.35419C4.06284 1.26038 4.01014 1.13314 4.01014 1.00047Z" fill="black"/>
</svg>
