<svg width="8" height="9" viewBox="0 0 8 9" fill="none" xmlns="http://www.w3.org/2000/svg">
<path fill-rule="evenodd" clip-rule="evenodd" d="M6.92683 1.57296C6.95011 1.59618 6.96858 1.62377 6.98118 1.65414C6.99379 1.68451 7.00027 1.71707 7.00027 1.74996C7.00027 1.78284 6.99379 1.8154 6.98118 1.84578C6.96858 1.87615 6.95011 1.90374 6.92683 1.92696L1.42683 7.42696C1.37988 7.4739 1.31622 7.50027 1.24983 7.50027C1.18344 7.50027 1.11977 7.4739 1.07283 7.42696C1.02588 7.38002 0.999512 7.31635 0.999512 7.24996C0.999512 7.18357 1.02588 7.1199 1.07283 7.07296L6.57283 1.57296C6.59605 1.54968 6.62364 1.53121 6.65401 1.5186C6.68438 1.506 6.71694 1.49951 6.74983 1.49951C6.78271 1.49951 6.81527 1.506 6.84564 1.5186C6.87602 1.53121 6.9036 1.54968 6.92683 1.57296V1.57296Z" fill="#1F2937"/>
<path fill-rule="evenodd" clip-rule="evenodd" d="M1.07296 1.57296C1.04968 1.59618 1.03121 1.62377 1.0186 1.65414C1.006 1.68451 0.999512 1.71707 0.999512 1.74996C0.999512 1.78284 1.006 1.8154 1.0186 1.84578C1.03121 1.87615 1.04968 1.90374 1.07296 1.92696L6.57296 7.42696C6.6199 7.4739 6.68357 7.50027 6.74996 7.50027C6.81635 7.50027 6.88002 7.4739 6.92696 7.42696C6.9739 7.38002 7.00027 7.31635 7.00027 7.24996C7.00027 7.18357 6.9739 7.1199 6.92696 7.07296L1.42696 1.57296C1.40374 1.54968 1.37615 1.53121 1.34578 1.5186C1.3154 1.506 1.28284 1.49951 1.24996 1.49951C1.21707 1.49951 1.18451 1.506 1.15414 1.5186C1.12377 1.53121 1.09618 1.54968 1.07296 1.57296V1.57296Z" fill="#1F2937"/>
</svg>
