<svg width="90" height="56" viewBox="0 0 90 56" fill="none" xmlns="http://www.w3.org/2000/svg">
<path d="M16.4789 25.4053C19.6506 25.0729 22.7382 24.3898 25.7846 24.4867C29.1136 24.5729 32.5947 24.9363 35.6786 26.0225C39.3331 27.2285 40.9481 30.6346 40.2287 34.0584C39.4466 37.6969 36.5592 39.9291 32.4502 39.8017C27.1373 39.6492 22.5241 37.418 18.308 34.4642C17.2187 33.7271 16.3386 32.9113 15.3906 32.1689C7.54629 34.3058 6.44412 36.9657 5.43349 55.1189C2.47647 55.5139 1.6216 53.4943 1.11199 51.2492C-0.726255 43.8181 3.12791 33.4825 9.32671 29.002C10.0173 28.5513 10.5665 28.1059 11.3983 27.6498C11.1462 26.598 10.7581 25.6928 10.5113 24.7822C8.84652 18.1937 11.0868 11.9526 17.0458 8.61335C20.4412 6.7157 24.3553 5.43527 28.2855 4.57878C34.9527 3.12328 41.7628 3.57292 48.3904 4.80785C56.4419 6.2719 64.3681 8.16524 72.425 9.77061C73.5663 10.0104 74.8489 10.2449 76.4141 10.4686C75.2552 7.89436 74.0443 5.81738 73.3934 3.57768C73.0786 2.74046 73.6423 0.808575 74.1342 0.719178C75.1861 0.467048 76.4114 1.05746 77.5527 1.29728C77.7673 1.35991 77.9247 1.77853 78.1447 1.98248C81.2677 5.96834 84.464 10.0222 87.7282 14.0027C90.6205 17.502 90.5953 18.7059 87.164 21.5248C83.1835 24.7891 78.5055 26.4522 73.5807 27.2049C71.9636 27.4784 70.3357 27.4693 69.8154 24.9416C72.7227 21.3642 77.8316 21.7368 81.8174 18.6138C80.1682 18.0394 79.0162 17.517 77.8749 17.2771C67.8808 14.9668 57.9493 12.4418 47.8353 10.7021C42.349 9.70695 36.6175 9.71178 31.106 9.92056C27.7143 10.049 24.0775 11.1775 20.9486 12.6404C15.5908 15.037 14.2022 19.4768 16.4789 25.4053ZM22.3656 29.4987C22.2404 29.928 22.2564 30.352 22.1312 30.7813C24.6139 32.8101 27.4205 34.0483 30.5563 34.6371C33.4774 35.1633 35.1519 34.5338 35.3023 32.9006C35.3526 30.4928 33.4261 30.0704 31.7195 29.852C28.5264 29.6192 25.4854 29.6636 22.3656 29.4987Z" fill="#FF7917"/>
</svg>
